<svg width="38" height="33" viewBox="0 0 38 33" fill="none" xmlns="http://www.w3.org/2000/svg">
<path d="M3.09373 30.3656H26.1188V28.3875H3.09373V30.3656ZM7.33745 18.4568H14.6045H21.8716V20.5745H14.6045H7.33745V18.4568ZM21.8716 4.50253V16.7498H7.31131V4.50253H21.8716ZM19.7772 6.61944H9.40626V14.6332H19.7772V6.61944ZM23.5789 3.11703H5.63445V26.2701H23.5789V3.11703ZM25.6733 7.83053C27.7128 7.32939 29.8848 8.50624 29.8409 10.8281C29.775 14.2918 29.845 17.7685 29.845 21.2342C29.845 24.0025 35.8918 22.7552 35.1575 20.4447C34.7202 19.0695 33.0507 13.0963 32.7042 12.1361H32.18V9.03055L28.439 5.24822L30.66 3.00302L35.3222 7.71573V12.1364H34.8402C35.2154 13.4039 36.6549 18.2574 37.1454 19.7996C38.8718 25.2304 27.7505 27.2829 27.7505 21.2342C27.7505 17.7588 27.6884 14.2665 27.7544 10.796C27.7753 9.70085 26.3315 9.63674 25.6735 10.1024V26.2705H28.2137V32.4838H1V26.2705H3.54022V1H25.674L25.6733 7.83053Z" fill="#4E4E4E" stroke="#151515" stroke-width="0.5"/>
</svg>
