<svg width="31" height="38" viewBox="0 0 31 38" fill="none" xmlns="http://www.w3.org/2000/svg">
<path d="M8.99694 11.4745C8.29373 11.4728 7.60308 11.6628 6.99985 12.0246C6.39638 12.3864 5.90354 12.906 5.57399 13.5276C5.36612 13.9141 5.22527 14.3331 5.15724 14.7665L3.41138 26.9383C2.31102 27.4592 1.48963 28.4303 1.15879 29.6016C0.827703 30.7733 1.0197 32.0306 1.68489 33.0501L3.18763 35.3438L3.18738 35.344C3.66587 36.0795 4.48449 36.5225 5.36212 36.5202H25.1809C26.0583 36.5224 26.8766 36.08 27.3556 35.345L28.8584 33.0501H28.8581C29.5235 32.0306 29.7156 30.7735 29.3847 29.6019C29.0541 28.4305 28.233 27.4591 27.1329 26.9383L25.3858 14.7517C25.2434 13.836 24.7775 13.0017 24.0725 12.4003C23.3675 11.7989 22.4703 11.4703 21.5435 11.4741H19.8037V9.02019C20.8186 8.91411 21.7159 8.31446 22.2019 7.41715C22.688 6.51984 22.7001 5.44069 22.2347 4.53261L21.3545 2.78901V2.78926C21.0834 2.25055 20.6677 1.79777 20.1539 1.48177C19.6402 1.1658 19.0485 0.998998 18.4456 1H12.0975C11.4946 0.998997 10.9029 1.1658 10.3892 1.48177C9.87546 1.79773 9.45972 2.25052 9.18861 2.78926L8.30846 4.5326C7.84308 5.44068 7.85517 6.51989 8.34121 7.41714C8.82726 8.31439 9.72449 8.91408 10.7395 9.02018V11.4741L8.99694 11.4745ZM11.3135 29.8304H9.27638C8.94101 29.8314 8.62734 29.6648 8.44086 29.3861L7.25735 27.6317H7.25709C6.81413 26.9753 6.08242 26.5719 5.29102 26.548L6.90561 15.274C9.5402 17.156 11.3138 21.3762 11.3138 26.0274L11.3135 29.8304ZM27.3459 32.0602L25.8434 34.3564C25.6983 34.5817 25.4489 34.7178 25.181 34.7178H5.36223C5.09414 34.7183 4.84444 34.582 4.69977 34.3564L3.19729 32.0602C2.87956 31.575 2.74829 30.9912 2.82765 30.4167C2.90702 29.8422 3.19174 29.3159 3.62917 28.9351C4.06634 28.5541 4.62672 28.3442 5.20674 28.3445C5.42847 28.345 5.63559 28.4556 5.75956 28.6395L6.94307 30.395C7.46565 31.1716 8.34048 31.637 9.27655 31.6365H21.2665C22.2026 31.637 23.0774 31.1716 23.6 30.395L24.7835 28.6335C24.908 28.4503 25.1148 28.3404 25.3363 28.3397C25.9163 28.3394 26.4767 28.5493 26.9139 28.9303C27.3513 29.311 27.636 29.8373 27.7154 30.4119C27.7948 30.9864 27.6635 31.5702 27.3458 32.0554L27.3459 32.0602ZM23.6384 15.2757L25.2518 26.5497H25.2521C24.4606 26.5739 23.7292 26.9773 23.286 27.6334L22.1025 29.3889H22.1022C21.9158 29.6676 21.6021 29.8344 21.2667 29.8334H19.2293V26.0296C19.2293 21.3783 21.0029 17.1578 23.6387 15.2762L23.6384 15.2757ZM22.7618 13.6863C19.5314 15.8669 17.4229 20.6398 17.4229 26.0291V29.8303L13.12 29.8305V26.0293C13.12 20.641 11.0118 15.8681 7.78234 13.6878V13.6876C8.13358 13.4263 8.55916 13.2837 8.99707 13.2807H21.5463C21.9842 13.2845 22.4098 13.4263 22.7623 13.6866L22.7618 13.6863ZM9.97398 6.63283C9.72882 6.2448 9.70841 5.75571 9.91981 5.34805L10.8 3.60445V3.6047C10.9204 3.36382 11.1059 3.16149 11.3351 3.02039C11.5644 2.87954 11.8287 2.80521 12.0978 2.80647H18.4459C18.715 2.80521 18.9793 2.87954 19.2086 3.02039C19.4379 3.16149 19.6233 3.36382 19.7438 3.6047L20.6239 5.3483V5.34805C20.83 5.75674 20.8094 6.24304 20.5698 6.63257C20.3299 7.02237 19.905 7.25998 19.4475 7.26023H11.0962C10.6371 7.26501 10.2103 7.0264 9.97399 6.63283L9.97398 6.63283ZM12.5458 9.06636H17.9979V11.4744H12.5458V9.06636Z" fill="#4E4E4E" stroke="#4E4E4E"/>
<path d="M16.4165 15.3356H14.1286C13.63 15.3356 13.2256 15.74 13.2256 16.2386C13.2256 16.7375 13.63 17.1417 14.1286 17.1417H16.4165C16.9152 17.1417 17.3196 16.7375 17.3196 16.2386C17.3196 15.74 16.9152 15.3356 16.4165 15.3356Z" fill="#4E4E4E" stroke="#4E4E4E"/>
</svg>
