<svg width="32" height="29" viewBox="0 0 32 29" fill="none" xmlns="http://www.w3.org/2000/svg">
<path d="M30.6785 12.7393L30.6785 12.7394C30.2873 14.6759 29.1952 16.6105 27.7013 18.4516C26.2125 20.2863 24.3687 21.9745 22.5544 23.4166C20.7431 24.8564 18.9816 26.0349 17.6718 26.8538C17.0176 27.2628 16.478 27.5809 16.1035 27.7959C16.0675 27.8167 16.0329 27.8364 16 27.8552C15.9671 27.8364 15.9325 27.8167 15.8965 27.7959C15.522 27.5809 14.9824 27.2628 14.3282 26.8538C13.0184 26.0349 11.2569 24.8564 9.44556 23.4166C7.63127 21.9745 5.78745 20.2863 4.29874 18.4516C2.80482 16.6105 1.71271 14.6759 1.32149 12.7394L1.32147 12.7393C0.509438 8.7211 1.31882 5.80426 2.80297 3.9096C4.29644 2.00303 6.56078 1.01533 8.88887 1.01533H8.91938L8.94984 1.01347C10.1751 0.938618 11.3975 1.17684 12.4919 1.70161C13.586 2.22627 14.5103 3.01717 15.1742 3.98928L16 5.19836L16.8258 3.98928C17.4897 3.01717 18.414 2.22627 19.5081 1.70161C20.6025 1.17684 21.8249 0.938618 23.0502 1.01347L23.0806 1.01533H23.1111C25.4392 1.01533 27.7036 2.00303 29.197 3.9096C30.6812 5.80426 31.4906 8.7211 30.6785 12.7393ZM0.341373 12.9374L0.341288 12.9374L0.341373 12.9374Z" stroke="white" stroke-width="2"/>
</svg>
