<?xml version="1.0" standalone="no"?>
<!DOCTYPE svg PUBLIC "-//W3C//DTD SVG 1.1//EN" "http://www.w3.org/Graphics/SVG/1.1/DTD/svg11.dtd" >
<svg xmlns="http://www.w3.org/2000/svg" xmlns:xlink="http://www.w3.org/1999/xlink" version="1.1">
<metadata>
Created by FontForge 20170731 at Mon May 11 02:32:04 2020
 By Aleksey,,,
Copyright (c) 2020 by Charles Forman. All rights reserved.
</metadata>
<defs>
<font id="THICCCBOI-ExtraBold" horiz-adv-x="600" >
  <font-face 
    font-family="THICCCBOI Medium"
    font-weight="800"
    font-stretch="normal"
    units-per-em="1000"
    panose-1="0 0 9 0 0 0 0 0 0 0"
    ascent="800"
    descent="-200"
    x-height="500"
    cap-height="700"
    bbox="-603 -365 1558 790"
    underline-thickness="50"
    underline-position="-150"
    unicode-range="U+0020-FB02"
  />
<missing-glyph horiz-adv-x="476" 
d="M414 -90h-351v842h351v-842zM382 -60v782h-288v-782h288z" />
    <glyph glyph-name="fi" unicode="fi" horiz-adv-x="621" 
d="M351 578q-24 3 -44 3q-32 0 -47.5 -11t-15.5 -39v-31h106v-127h-106v-373h-143v373h-78v127h78v40q0 99 41.5 136.5t126.5 37.5q34 0 82 -5v-131zM431.5 589.5q-22.5 21.5 -22.5 58.5q0 38 22.5 60t62.5 22q39 0 62 -22t23 -60q0 -37 -23 -58.5t-62 -21.5
q-40 0 -62.5 21.5zM422 0v500h143v-500h-143z" />
    <glyph glyph-name="fl" unicode="fl" horiz-adv-x="679" 
d="M351 578q-24 3 -44 3q-32 0 -47.5 -11t-15.5 -39v-31h106v-127h-106v-373h-143v373h-78v127h78v40q0 99 41.5 136.5t126.5 37.5q34 0 82 -5v-131zM592.5 135q7.5 -7 25.5 -7q13 0 31 3v-131q-49 -7 -76 -7q-65 0 -98 34.5t-33 121.5v551h143v-542q0 -16 7.5 -23z" />
    <glyph glyph-name=".notdef" horiz-adv-x="476" 
d="M414 -90h-351v842h351v-842zM382 -60v782h-288v-782h288z" />
    <glyph glyph-name=".null" horiz-adv-x="0" 
 />
    <glyph glyph-name="nonmarkingreturn" horiz-adv-x="333" 
 />
    <glyph glyph-name="space" unicode=" " horiz-adv-x="256" 
 />
    <glyph glyph-name="exclam" unicode="!" horiz-adv-x="268" 
d="M199 226h-127l-23 474h171zM77 125.5q20 20.5 58 20.5q37 0 57 -20.5t20 -58.5t-20 -58.5t-57 -20.5t-57.5 20.5t-20.5 58.5t20 58.5z" />
    <glyph glyph-name="quotedbl" unicode="&#x22;" horiz-adv-x="418" 
d="M98 364l-35 191v119h124v-119l-36 -191h-53zM231 555v119h124v-119l-36 -191h-52z" />
    <glyph glyph-name="numbersign" unicode="#" horiz-adv-x="626" 
d="M350 0h-104l56 166h-90l-55 -166h-104l56 166h-93l28 89h95l51 156h-94l27 88h98l55 168h104l-56 -168h90l55 168h104l-57 -168h95l-27 -88h-97l-52 -156h98l-28 -89h-100zM331 255l52 156h-89l-51 -156h88z" />
    <glyph glyph-name="dollar" unicode="$" horiz-adv-x="620" 
d="M265 768h104v-95q121 -13 206 -89l-87 -113q-54 48 -126 62v-120q68 -16 116.5 -37.5t80.5 -62.5t32 -106q0 -92 -59 -148.5t-163 -67.5v-91h-104v91q-146 11 -238 103l85 118q69 -71 166 -85v136q-68 15 -116.5 35.5t-80.5 62t-32 108.5q0 51 25.5 95t74.5 73.5
t116 36.5v94zM227.5 453q16.5 -12 50.5 -22v111q-32 -3 -49.5 -18.5t-17.5 -38.5q0 -20 16.5 -32zM362 127q31 5 49 20.5t18 40.5q0 22 -16 34.5t-51 23.5v-119z" />
    <glyph glyph-name="percent" unicode="%" horiz-adv-x="765" 
d="M106 365.5q-39 21.5 -60.5 59.5t-21.5 84q0 47 21.5 85.5t60.5 60.5t90 22t90.5 -22t61 -60.5t21.5 -85.5q0 -46 -21.5 -84t-61 -59.5t-90.5 -21.5t-90 21.5zM212 0h-82l426 667h83zM248.5 451q20.5 21 20.5 58q0 39 -20.5 60.5t-52.5 21.5t-52 -21.5t-20 -60.5
q0 -37 20 -58t52 -21t52.5 21zM479 10q-39 22 -60.5 60t-21.5 84q0 47 21.5 85.5t60.5 60.5t90 22t90 -22t60.5 -60.5t21.5 -85.5q0 -46 -21.5 -84t-60.5 -60t-90 -22t-90 22zM622 95q20 21 20 59q0 39 -20 60t-53 21t-53 -21t-20 -60q0 -37 20.5 -58.5t52.5 -21.5
q33 0 53 21z" />
    <glyph glyph-name="ampersand" unicode="&#x26;" horiz-adv-x="653" 
d="M116.5 459q15.5 -33 50.5 -75q-148 -81 -148 -197q0 -93 68.5 -142t175.5 -49q42 0 101.5 16.5t112.5 56.5l66 -69h178l-160 162q18 37 27 74.5t9 84.5h-136q0 -33 -9 -53l-83 91q61 46 86.5 81.5t25.5 86.5q0 74 -49.5 114t-134.5 40q-86 0 -141 -40t-55 -113
q0 -36 15.5 -69zM345 527q0 -27 -16 -44.5t-48 -38.5q-23 25 -34 41.5t-11 38.5q0 25 14.5 35.5t46.5 10.5q48 0 48 -43zM380 166q-56 -53 -117 -53q-46 0 -74 20t-28 54t20 57.5t74 53.5z" />
    <glyph glyph-name="quotesingle" unicode="'" horiz-adv-x="197" 
d="M53 581v119h124v-119l-35 -191h-53z" />
    <glyph glyph-name="parenleft" unicode="(" horiz-adv-x="311" 
d="M204 -94q-75 79 -119.5 200t-44.5 242t44.5 242.5t119.5 199.5l89 -68q-53 -95 -76.5 -181.5t-23.5 -192.5t23.5 -193t76.5 -179z" />
    <glyph glyph-name="parenright" unicode=")" horiz-adv-x="312" 
d="M108 790q75 -78 119.5 -199.5t44.5 -242.5t-44.5 -242t-119.5 -200l-89 70q53 92 76.5 179t23.5 193t-23.5 192.5t-76.5 181.5z" />
    <glyph glyph-name="asterisk" unicode="*" horiz-adv-x="355" 
d="M23 469l96 49l-96 50l34 59l91 -58l-5 108h69l-6 -108l91 58l35 -59l-96 -50l96 -49l-35 -59l-91 58l6 -108h-69l5 108l-91 -58z" />
    <glyph glyph-name="plus" unicode="+" horiz-adv-x="506" 
d="M477 294h-176v-200h-95v200h-177v87h177v192h95v-192h176v-87z" />
    <glyph glyph-name="comma" unicode="," horiz-adv-x="263" 
d="M107 -9q-33 10 -42.5 24t-9.5 52t20 58.5t58 20.5t59 -21.5t21 -59.5q-1 -42 -10.5 -67.5t-35.5 -60.5l-56 -73l-43 37z" />
    <glyph glyph-name="hyphen" unicode="-" horiz-adv-x="300" 
d="M270 182h-240v120h240v-120z" />
    <glyph glyph-name="period" unicode="." horiz-adv-x="266" 
d="M77.5 120.5q19.5 19.5 55.5 19.5t55.5 -19.5t19.5 -56.5t-19.5 -56.5t-55.5 -19.5t-55.5 19.5t-19.5 56.5t19.5 56.5z" />
    <glyph glyph-name="slash" unicode="/" horiz-adv-x="339" 
d="M237 687h102l-237 -707h-102z" />
    <glyph glyph-name="zero" unicode="0" horiz-adv-x="608" 
d="M150 32.5q-66 45.5 -102 128t-36 189.5t36 189.5t102 128t154 45.5t154 -45.5t101.5 -128t35.5 -189.5t-35.5 -189.5t-101.5 -128t-154 -45.5t-154 45.5zM407 189q38 52 38 161t-38 161t-103 52t-103 -52t-38 -161t38 -161t103 -52t103 52z" />
    <glyph glyph-name="one" unicode="1" horiz-adv-x="608" 
d="M385 700v-557h184v-143h-530v143h196v393l-98 -65l-80 117l178 112h150z" />
    <glyph glyph-name="two" unicode="2" horiz-adv-x="608" 
d="M572 143v-142h-531v32q7 100 57 195.5t159 138.5l33 14q68 27 102 49t34 56q0 29 -17 50t-42 31.5t-50 10.5q-59 0 -99 -22.5t-48 -69.5l-141 15q9 66 50.5 114t104 73.5t133.5 25.5q64 0 122.5 -27t94.5 -77t36 -116t-32 -111t-85.5 -74.5t-138.5 -61.5
q-64 -24 -95 -104h353z" />
    <glyph glyph-name="three" unicode="3" horiz-adv-x="608" 
d="M547 300q21 -41 21 -89q0 -63 -35.5 -114t-96.5 -80t-135 -29q-72 0 -132.5 27.5t-96 76.5t-36.5 109l156 11q6 -36 36.5 -59.5t72.5 -23.5q51 0 84.5 25t33.5 64q0 40 -33.5 65.5t-84.5 25.5h-38v120h38q45 0 74 21t29 54t-30 54.5t-76 21.5q-33 0 -61.5 -15t-39.5 -39
l-148 9q6 51 40.5 91.5t89 63.5t119.5 23q73 0 130 -27t89.5 -74.5t32.5 -107.5q0 -39 -16.5 -73t-46.5 -60q39 -30 60 -71z" />
    <glyph glyph-name="four" unicode="4" horiz-adv-x="608" 
d="M509 270h70v-143h-70v-127h-150v127h-334v143l210 430h166l-209 -430h167v145h150v-145z" />
    <glyph glyph-name="five" unicode="5" horiz-adv-x="608" 
d="M310 440q120 0 189.5 -57t69.5 -155q0 -111 -69.5 -175.5t-189.5 -64.5q-124 0 -197.5 55.5t-75.5 151.5l142 17q6 -38 41.5 -60.5t89.5 -22.5q56 0 87.5 26.5t31.5 72.5q0 40 -31.5 62.5t-87.5 22.5h-128v2l-114 -2l48 387h426v-142h-301l-14 -118h83z" />
    <glyph glyph-name="six" unicode="6" horiz-adv-x="608" 
d="M318 490q73 -4 130 -37.5t89 -89.5t32 -125q0 -72 -34.5 -129t-95.5 -89.5t-137 -32.5t-137 32.5t-95.5 89.5t-34.5 129q0 70 33 128l209 334h173zM382 164q32 30 32 74t-32.5 74t-79.5 30t-79.5 -29.5t-32.5 -74.5t33 -74.5t79 -29.5q48 0 80 30z" />
    <glyph glyph-name="seven" unicode="7" horiz-adv-x="608" 
d="M44 558v142h520v-107l-265 -593h-164l249 558h-340z" />
    <glyph glyph-name="eight" unicode="8" horiz-adv-x="608" 
d="M572 206q0 -102 -72 -161t-196 -59t-196 59t-72 161q0 108 82 156q-67 45 -67 140q0 98 67.5 155t185.5 57t185 -57t67 -155q0 -94 -67 -139q83 -50 83 -157zM226 559q-29 -21 -29 -57t28.5 -56.5t78.5 -20.5t78 20.5t28 56.5t-28.5 57t-77.5 21t-78 -21zM395 148.5
q35 24.5 35 67.5q0 42 -34.5 64.5t-91.5 22.5q-58 0 -92.5 -22.5t-34.5 -64.5q0 -43 35 -67.5t92 -24.5q56 0 91 24.5z" />
    <glyph glyph-name="nine" unicode="9" horiz-adv-x="608" 
d="M521 314l-196 -314h-173l133 211q-73 4 -130 37t-89.5 89t-32.5 125q0 72 34.5 129.5t95.5 90t138 32.5q76 0 137 -32.5t95.5 -90t34.5 -129.5q0 -84 -47 -148zM221 388.5q33 -30.5 80 -30.5q46 0 79 30t33 74q0 45 -33 75t-79 30q-48 0 -80.5 -30.5t-32.5 -74.5
q0 -43 33 -73.5z" />
    <glyph glyph-name="colon" unicode=":" horiz-adv-x="263" 
d="M75 469.5q20 20.5 58 20.5q37 0 57 -20.5t20 -58.5t-20 -58.5t-57 -20.5q-38 0 -58 20.5t-20 58.5t20 58.5zM75 125.5q20 20.5 58 20.5q37 0 57 -20.5t20 -58.5t-20 -58.5t-57 -20.5t-57.5 20.5t-20.5 58.5t20 58.5z" />
    <glyph glyph-name="semicolon" unicode=";" horiz-adv-x="263" 
d="M75 469.5q20 20.5 58 20.5q37 0 57 -20.5t20 -58.5t-20 -58.5t-57 -20.5q-38 0 -58 20.5t-20 58.5t20 58.5zM107 -9q-33 10 -42.5 24t-9.5 52t20 58.5t58 20.5t59 -21.5t21 -59.5q-1 -42 -10.5 -67.5t-35.5 -60.5l-56 -73l-43 37z" />
    <glyph glyph-name="less" unicode="&#x3c;" horiz-adv-x="506" 
d="M477 90l-448 194v102l448 194v-103l-349 -143l349 -141v-103z" />
    <glyph glyph-name="equal" unicode="=" horiz-adv-x="506" 
d="M477 384h-448v87h448v-87zM477 198h-448v86h448v-86z" />
    <glyph glyph-name="greater" unicode="&#x3e;" horiz-adv-x="506" 
d="M477 284l-448 -194v103l349 141l-349 143v103l448 -194v-102z" />
    <glyph glyph-name="question" unicode="?" horiz-adv-x="454" 
d="M153 222v115q0 45 20 72t57 57q23 18 34.5 31t11.5 29q0 21 -16.5 34t-50.5 13q-31 0 -60.5 -15t-52.5 -41l-89 102q41 47 99 71t121 24q96 0 153.5 -43.5t57.5 -115.5q0 -38 -13 -66t-30.5 -46.5t-46.5 -42.5q-29 -23 -43 -40t-14 -39v-99h-138zM164 125.5
q20 20.5 58 20.5q37 0 57 -20.5t20 -58.5t-20 -58.5t-57 -20.5t-57.5 20.5t-20.5 58.5t20 58.5z" />
    <glyph glyph-name="at" unicode="@" horiz-adv-x="888" 
d="M816 383q0 -20 -1 -31l-10 -119q-4 -41 -27.5 -78t-58.5 -59.5t-73 -22.5q-31 0 -58 11t-46 31q-35 -20 -78 -20h-47q-38 0 -72.5 15t-58.5 42q-22 23 -34 54t-12 63q0 13 1 19l2 24q3 49 31.5 91t72.5 66.5t94 24.5h47q47 0 86 -25l78 -1l-12 -129v-11l-7 -77
q0 -4 -2 -12l-2 -28q2 -4 6 -7.5t10 -3.5q7 0 14 4q11 6 18 17t8 23l10 118q1 8 1 24q0 66 -35 106q-25 26 -62.5 37.5t-74.5 11.5h-100q-46 0 -85.5 -13t-68.5 -38q-62 -53 -70 -145l-10 -118l-1 -18q0 -65 40 -110q25 -26 61 -40t79 -14h147v-121h-147q-69 0 -128 24.5
t-100 70.5q-35 37 -53 85.5t-18 102.5q0 20 1 30l10 118q7 91 52.5 160t121 107.5t169.5 38.5h97q71 0 129.5 -22.5t98.5 -65.5q38 -41 55 -98q12 -42 12 -92zM474 215q18 0 33 14t17 32l6 78v4q0 13 -8 21q-10 10 -24 10h-47q-29 0 -52.5 -22t-26.5 -51l-2 -23
q-2 -27 15 -45q18 -18 42 -18h47z" />
    <glyph glyph-name="A" unicode="A" horiz-adv-x="688" 
d="M683 0h-160l-49 132h-259l-49 -132h-161l259 700h161zM345 482l-78 -208h155z" />
    <glyph glyph-name="B" unicode="B" horiz-adv-x="626" 
d="M581 304q18 -41 18 -87q0 -58 -28 -108t-75.5 -79t-103.5 -29h-174v-1h-150v700h308q53 0 98 -27.5t71.5 -74t26.5 -99.5q0 -33 -10.5 -65.5t-30.5 -58.5q32 -30 50 -71zM218 557v-129l158 1q22 0 40 18.5t18 45.5q0 28 -18 46t-40 18h-158zM392 144q26 0 45 22t19 52
t-19 52t-45 22h-174v-148h174z" />
    <glyph glyph-name="C" unicode="C" horiz-adv-x="743" 
d="M83.5 529q48.5 83 131.5 131.5t181 48.5q100 0 185 -52t132 -137l-132 -71q-28 50 -77 79.5t-108 29.5q-57 0 -105.5 -28t-76.5 -76.5t-28 -105.5t28.5 -105.5t76.5 -77t105 -28.5q59 0 109 30.5t77 81.5l133 -72q-47 -86 -132.5 -138.5t-186.5 -52.5q-98 0 -181 49
t-131.5 132t-48.5 181t48.5 181z" />
    <glyph glyph-name="D" unicode="D" horiz-adv-x="750" 
d="M535.5 653.5q82.5 -46.5 131 -127t48.5 -178.5t-48 -177.5t-131 -125t-181 -45.5h-287v700h287q98 0 180.5 -46.5zM355 143q57 0 105.5 27.5t76.5 74.5t28 104t-28 105t-76.5 76t-105.5 28h-137v-415h137z" />
    <glyph glyph-name="E" unicode="E" horiz-adv-x="535" 
d="M218 285v-142h284v-143h-434v700h428v-142h-278v-130h254v-143h-254z" />
    <glyph glyph-name="F" unicode="F" horiz-adv-x="534" 
d="M496 700v-142h-278v-141h268v-142h-268v-275h-150v700h428z" />
    <glyph glyph-name="G" unicode="G" horiz-adv-x="784" 
d="M368 380h382v-63q0 -89 -48 -165t-129.5 -121t-176.5 -45q-98 0 -181 49t-131.5 132t-48.5 181t48.5 181t131.5 131.5t181 48.5q88 0 164.5 -40t126.5 -109l-119 -93q-28 42 -73.5 66.5t-98.5 24.5q-57 0 -105.5 -28t-76.5 -76.5t-28 -105.5t28.5 -105.5t76.5 -77
t105 -28.5q59 0 106.5 27t73.5 74h-208v142z" />
    <glyph glyph-name="H" unicode="H" horiz-adv-x="738" 
d="M520 430v270h150v-700h-150v287h-302v-287h-150v700h150v-270h302z" />
    <glyph glyph-name="I" unicode="I" horiz-adv-x="286" 
d="M68 0v700h151v-700h-151z" />
    <glyph glyph-name="J" unicode="J" horiz-adv-x="579" 
d="M367 700h150v-474q0 -68 -31.5 -122.5t-89 -85.5t-132.5 -31q-80 0 -138 33t-92 98l123 70q22 -36 46.5 -51.5t66.5 -15.5q97 0 97 105v474z" />
    <glyph glyph-name="K" unicode="K" horiz-adv-x="680" 
d="M677 1l-188 -1l-204 262l-67 -80v-182h-150v700h150v-282l238 282h193l-266 -319z" />
    <glyph glyph-name="L" unicode="L" horiz-adv-x="516" 
d="M218 700v-557h284v-143h-434v700h150z" />
    <glyph glyph-name="M" unicode="M" horiz-adv-x="830" 
d="M612 699v1h150v-700h-150v424l-178 -298h-37l-179 299v-425h-150v700h150v-1l2 1l195 -328l195 328z" />
    <glyph glyph-name="N" unicode="N" horiz-adv-x="693" 
d="M475 301v399h150v-700h-127l-280 438v-438h-150v700h150z" />
    <glyph glyph-name="O" unicode="O" horiz-adv-x="792" 
d="M215 35q-83 49 -131.5 132t-48.5 181t48.5 181t131.5 131.5t181 48.5t181 -48.5t131.5 -131.5t48.5 -181t-48.5 -181t-131.5 -132t-181 -49t-181 49zM501.5 165.5q48.5 28.5 77 77t28.5 105.5t-28.5 105t-77 76.5t-105.5 28.5t-105.5 -28t-76.5 -76.5t-28 -105.5
t28.5 -105.5t76.5 -77t105 -28.5t105.5 28.5z" />
    <glyph glyph-name="P" unicode="P" horiz-adv-x="589" 
d="M446 669q53 -31 84.5 -84.5t31.5 -117.5q0 -63 -31.5 -116.5t-85 -85t-116.5 -31.5h-111v-234h-150v700h261q64 0 117 -31zM329 377q37 0 63.5 26.5t26.5 63.5q0 38 -26 64t-64 26h-111v-180h111z" />
    <glyph glyph-name="Q" unicode="Q" horiz-adv-x="813" 
d="M761 62l-106 -107l-79 79q-85 -48 -180 -48q-98 0 -181 49t-131.5 132t-48.5 181t48.5 181t131.5 131.5t181 48.5t181 -48.5t131.5 -131.5t48.5 -181q0 -58 -18 -112.5t-51 -100.5zM462 148l-72 72l106 106l83 -83q28 48 28 105t-28.5 105t-77 76.5t-105.5 28.5
t-105.5 -28t-76.5 -76.5t-28 -105.5t28.5 -105.5t76.5 -77t105 -28.5q33 0 66 11z" />
    <glyph glyph-name="R" unicode="R" horiz-adv-x="645" 
d="M455 0l-130 234h-107v-234h-150v700h289q64 0 117.5 -31t85 -84.5t31.5 -117.5q0 -63 -30.5 -116t-82.5 -84l150 -267h-173zM218 557v-180h139q37 0 64 26.5t27 63.5t-26.5 63.5t-64.5 26.5h-139z" />
    <glyph glyph-name="S" unicode="S" horiz-adv-x="583" 
d="M129.5 33q-70.5 46 -99.5 125l127 74q20 -50 56.5 -74t94.5 -24q47 0 72.5 22t25.5 49q0 20 -12 34t-41 26.5t-84 28.5q-96 28 -153 76t-57 137q0 63 31.5 109.5t84 71.5t113.5 25q85 0 149 -40.5t100 -114.5l-130 -74q-19 42 -48 61.5t-71 19.5q-32 0 -55 -17.5
t-23 -40.5q0 -19 9.5 -32.5t35 -25.5t75.5 -27q67 -21 115.5 -46.5t80 -69.5t31.5 -110q0 -63 -33 -110.5t-90.5 -73t-129.5 -25.5q-104 0 -174.5 46z" />
    <glyph glyph-name="T" unicode="T" horiz-adv-x="547" 
d="M534 700v-142h-185v-558h-151v558h-184v142h520z" />
    <glyph glyph-name="U" unicode="U" horiz-adv-x="669" 
d="M458 700h150v-464q0 -73 -36 -129.5t-98.5 -88t-139.5 -31.5t-139 31.5t-98 88t-36 129.5v464h151v-464q0 -46 36 -72.5t86 -26.5q55 0 89.5 26t34.5 73v464z" />
    <glyph glyph-name="V" unicode="V" horiz-adv-x="653" 
d="M327 217l163 483h159l-238 -700h-169l-238 700h159z" />
    <glyph glyph-name="W" unicode="W" horiz-adv-x="1003" 
d="M711 242l120 458h156l-192 -700h-161l-132 442l-133 -442h-161l-192 700h156l120 -458l131 458h157z" />
    <glyph glyph-name="X" unicode="X" horiz-adv-x="698" 
d="M501 700h180l-227 -351l226 -349h-180l-151 235l-151 -235h-180l226 349l-227 351h180l152 -236z" />
    <glyph glyph-name="Y" unicode="Y" horiz-adv-x="658" 
d="M329 419l156 281h171l-252 -457v-243h-150v243l-251 457h170z" />
    <glyph glyph-name="Z" unicode="Z" horiz-adv-x="535" 
d="M505 590l-279 -447h282v-143h-470v110l279 448h-277v142h465v-110z" />
    <glyph glyph-name="bracketleft" unicode="[" horiz-adv-x="291" 
d="M150 15h123v-93h-224v868h224v-93h-123v-682z" />
    <glyph glyph-name="backslash" unicode="\" horiz-adv-x="339" 
d="M237 -20l-237 707h102l237 -707h-102z" />
    <glyph glyph-name="bracketright" unicode="]" horiz-adv-x="291" 
d="M18 790h224v-868h-224v93h123v682h-123v93z" />
    <glyph glyph-name="asciicircum" unicode="^" horiz-adv-x="444" 
d="M425 333h-103l-100 238l-99 -238h-104l152 334h104z" />
    <glyph glyph-name="underscore" unicode="_" horiz-adv-x="564" 
d="M-3 -40h570v-93h-570v93z" />
    <glyph glyph-name="grave" unicode="`" horiz-adv-x="258" 
d="M0 700h128l130 -144h-98z" />
    <glyph glyph-name="a" unicode="a" horiz-adv-x="646" 
d="M443 500h142v-500h-142v38q-33 -25 -72.5 -38.5t-79.5 -13.5q-78 0 -134.5 34t-86.5 93.5t-30 135.5t30 136.5t86.5 94.5t134.5 34q41 0 80 -14t72 -39v39zM404 158q38 36 38 93q0 55 -38 90t-94 35t-92 -35t-36 -92t36 -92t92 -35t94 36z" />
    <glyph glyph-name="b" unicode="b" horiz-adv-x="670" 
d="M502.5 480q56.5 -34 86.5 -94.5t30 -136.5t-30 -135.5t-86.5 -93.5t-134.5 -34q-45 0 -87 16t-77 46v-48h-143v700h143v-249q35 30 77 46.5t87 16.5q78 0 134.5 -34zM440.5 157q35.5 35 35.5 92t-35.5 92t-91.5 35t-94 -35t-38 -90q0 -57 38 -93t94 -36t91.5 35z" />
    <glyph glyph-name="c" unicode="c" horiz-adv-x="529" 
d="M513 98q-37 -52 -93.5 -82.5t-121.5 -30.5q-72 0 -132.5 35.5t-96 96.5t-35.5 132q0 72 35.5 132.5t96 96t132.5 35.5q65 0 121 -30t93 -81l-118 -78q-42 47 -96 47q-50 0 -86 -36t-36 -86t36 -85.5t86 -35.5q54 0 96 47z" />
    <glyph glyph-name="d" unicode="d" horiz-adv-x="646" 
d="M442 700h142v-700h-142v38q-33 -25 -71.5 -38.5t-79.5 -13.5q-78 0 -134.5 34t-86.5 93.5t-30 135.5t30 136.5t86.5 94.5t134.5 34q40 0 79 -13.5t72 -38.5v238zM404 158q38 36 38 93q0 55 -38 90t-94 35t-92 -35t-36 -92t36 -92t92 -35t94 36z" />
    <glyph glyph-name="e" unicode="e" horiz-adv-x="583" 
d="M428.5 478q57.5 -35 89.5 -95t32 -133q0 -28 -4 -51h-370q19 -46 51 -68.5t83 -22.5q31 0 60.5 13t46.5 35l108 -64q-35 -51 -90.5 -78t-127.5 -27q-81 0 -143 34.5t-96 94.5t-34 134t33.5 134t93.5 94.5t137 34.5q73 0 130.5 -35zM416 310q-7 38 -39.5 59t-79.5 21
q-49 0 -85 -23.5t-38 -56.5h242z" />
    <glyph glyph-name="f" unicode="f" horiz-adv-x="351" 
d="M351 578q-24 3 -44 3q-32 0 -47.5 -11t-15.5 -39v-31h106v-127h-106v-373h-143v373h-78v127h78v40q0 99 41.5 136.5t126.5 37.5q34 0 82 -5v-131z" />
    <glyph glyph-name="g" unicode="g" horiz-adv-x="647" 
d="M443 500h143v-475q0 -70 -36.5 -124t-100.5 -84t-144 -30q-87 0 -159.5 33.5t-101.5 86.5l122 71q13 -26 52 -43t91 -17q58 0 96 30t38 77v13q-33 -25 -71.5 -38.5t-79.5 -13.5q-78 0 -134.5 34t-86.5 93.5t-30 135.5t30 136.5t86.5 94.5t134.5 34q40 0 79 -13.5
t72 -38.5v38zM405 158q38 36 38 93q0 55 -38 90t-94 35t-91.5 -35t-35.5 -92t35.5 -92t91.5 -35t94 36z" />
    <glyph glyph-name="h" unicode="h" horiz-adv-x="574" 
d="M521 0h-143v295q0 48 -27 69.5t-64 21.5q-31 0 -54 -19.5t-29 -60.5v-306h-143v700h143v-236q55 46 119 46q43 0 87.5 -18.5t77 -65.5t33.5 -127v-299z" />
    <glyph glyph-name="i" unicode="i" horiz-adv-x="263" 
d="M72.5 589.5q-22.5 21.5 -22.5 58.5q0 38 22.5 60t62.5 22q39 0 62 -22t23 -60q0 -37 -23 -58.5t-62 -21.5q-40 0 -62.5 21.5zM63 0v500h143v-500h-143z" />
    <glyph glyph-name="j" unicode="j" horiz-adv-x="284" 
d="M90.5 574.5q-22.5 21.5 -22.5 58.5q0 38 22.5 59.5t62.5 21.5q39 0 62 -22t23 -59t-23 -58.5t-62 -21.5q-40 0 -62.5 21.5zM82 500h142v-514q0 -65 -30 -112t-84 -69.5t-123 -17.5v137q8 -1 23 -1q38 0 55 14.5t17 48.5v514z" />
    <glyph glyph-name="k" unicode="k" horiz-adv-x="582" 
d="M576 0h-178l-128 173l-66 -72v-101h-143v700h143v-389l166 189h199l-202 -220z" />
    <glyph glyph-name="l" unicode="l" horiz-adv-x="298" 
d="M211.5 135q7.5 -7 25.5 -7q13 0 31 3v-131q-49 -7 -76 -7q-65 0 -98 34.5t-33 121.5v551h143v-542q0 -16 7.5 -23z" />
    <glyph glyph-name="m" unicode="m" horiz-adv-x="889" 
d="M728 495q45 -19 77 -67t32 -129v-299h-142v299q0 48 -27 69t-64 21q-31 0 -53.5 -18.5t-29.5 -57.5v-14v-299h-143v299q0 48 -27 69t-64 21q-31 0 -54 -19t-29 -61v-309h-143v500h143v-32q55 46 119 46q44 0 89.5 -19t74.5 -63q26 35 66 58.5t86 23.5q44 0 89 -19z" />
    <glyph glyph-name="n" unicode="n" horiz-adv-x="575" 
d="M414 495q45 -19 77 -67t32 -129v-299h-143v299q0 48 -26.5 69t-63.5 21t-61.5 -26t-24.5 -83v-280h-143v500h143v-34q57 48 121 48q44 0 89 -19z" />
    <glyph glyph-name="o" unicode="o" horiz-adv-x="595" 
d="M165.5 20.5q-60.5 35.5 -96 96.5t-35.5 132q0 72 35.5 132.5t96 96t132.5 35.5q71 0 131.5 -35.5t96 -96t35.5 -132.5q0 -71 -35.5 -132t-96 -96.5t-131.5 -35.5q-72 0 -132.5 35.5zM383 163.5q36 35.5 36 85.5t-36 86t-86 36t-85.5 -36t-35.5 -86t35.5 -85.5t85.5 -35.5
t86 35.5z" />
    <glyph glyph-name="p" unicode="p" horiz-adv-x="646" 
d="M489.5 479q56.5 -34 86.5 -93.5t30 -135.5t-30 -136t-86.5 -94.5t-134.5 -34.5q-40 0 -79 13.5t-72 38.5v-237h-143v700h143v-39q33 25 71.5 38.5t79.5 13.5q78 0 134.5 -34zM427.5 158.5q35.5 34.5 35.5 91.5t-35.5 92t-91.5 35t-94 -36t-38 -92t37.5 -90.5t94.5 -34.5
q56 0 91.5 34.5z" />
    <glyph glyph-name="q" unicode="q" horiz-adv-x="646" 
d="M442 500h142v-700h-142v237q-33 -25 -72 -38.5t-79 -13.5q-78 0 -134.5 34.5t-86.5 94.5t-30 136t30 135.5t86.5 93.5t134.5 34q41 0 79.5 -13.5t71.5 -38.5v39zM404.5 158.5q37.5 34.5 37.5 90.5t-38 92t-94 36t-92 -35t-36 -92q0 -56 36 -91t92 -35q57 0 94.5 34.5z
" />
    <glyph glyph-name="r" unicode="r" horiz-adv-x="392" 
d="M375 510l-10 -135q-7 3 -23 3q-61 0 -99.5 -34.5t-38.5 -90.5v-253h-143v500h143v-81q18 39 58 65t97 26h16z" />
    <glyph glyph-name="s" unicode="s" horiz-adv-x="503" 
d="M210 332.5q21 -8.5 67 -17.5q59 -12 98 -26.5t68.5 -48t29.5 -92.5q0 -51 -31 -87.5t-82 -55t-110 -18.5q-81 0 -138 29.5t-86 87.5l117 60q24 -64 107 -64q34 0 59.5 12.5t25.5 35.5q0 20 -23.5 30t-74.5 21q-58 13 -97 27.5t-67 45t-28 81.5q0 49 28 85.5t75.5 55.5
t103.5 19q66 0 119 -27t83 -78l-116 -57q-12 25 -32.5 37t-53.5 12q-29 0 -46 -11.5t-17 -30.5q0 -17 21 -25.5z" />
    <glyph glyph-name="t" unicode="t" horiz-adv-x="398" 
d="M262.5 139q15.5 -11 47.5 -11q20 0 44 3v-131q-50 -5 -83 -5q-84 0 -125.5 37.5t-41.5 136.5v204h-86v127h86v116l143 48v-164h105v-127h-105v-195q0 -28 15.5 -39z" />
    <glyph glyph-name="u" unicode="u" horiz-adv-x="569" 
d="M365 500h143v-500h-143v34q-57 -48 -121 -48q-44 0 -89 19t-77 67t-32 129v299h143v-299q0 -47 27 -68.5t64 -21.5q36 0 60.5 26t24.5 83v280z" />
    <glyph glyph-name="v" unicode="v" horiz-adv-x="545" 
d="M273 177l117 323h151l-182 -500h-173l-182 500h151z" />
    <glyph glyph-name="w" unicode="w" horiz-adv-x="790" 
d="M548 231l81 269h149l-162 -500h-139l-83 264l-84 -264h-138l-160 500h150l79 -266l77 266h151z" />
    <glyph glyph-name="x" unicode="x" horiz-adv-x="546" 
d="M366 500h174l-180 -251l180 -249l-175 -1l-92 128l-92 -128l-175 1l180 249l-180 251h174l93 -129z" />
    <glyph glyph-name="y" unicode="y" horiz-adv-x="541" 
d="M388 500h149l-168 -493q-42 -108 -113.5 -161t-170.5 -46v138q6 -1 18 -1q42 0 70 22t47 61l-216 480h154l131 -287z" />
    <glyph glyph-name="z" unicode="z" horiz-adv-x="481" 
d="M434 408l-195 -273h205v-135h-400v92l199 273h-189v135h380v-92z" />
    <glyph glyph-name="braceleft" unicode="{" horiz-adv-x="297" 
d="M3 395q25 0 38.5 18t13.5 48v162q0 50 22.5 88t60.5 58.5t81 20.5h60v-93h-60q-26 0 -44 -20.5t-18 -53.5v-177q0 -34 -11.5 -57.5t-34.5 -32.5q23 -10 34.5 -33.5t11.5 -56.5v-177q0 -32 18 -53t44 -21h60v-94h-60q-44 0 -81.5 20.5t-60 58.5t-22.5 88v163
q0 29 -13.5 47.5t-38.5 18.5v78z" />
    <glyph glyph-name="bar" unicode="|" horiz-adv-x="218" 
d="M156 -80h-93v827h93v-827z" />
    <glyph glyph-name="braceright" unicode="}" horiz-adv-x="296" 
d="M293 317q-25 0 -38.5 -18.5t-13.5 -47.5v-163q0 -50 -22.5 -88t-60 -58.5t-80.5 -20.5h-61v94h61q26 0 44 21t18 53v177q0 70 46 90q-46 18 -46 90v177q0 33 -18 53.5t-44 20.5h-61v93h61q43 0 80.5 -20.5t60 -58.5t22.5 -88v-162q0 -29 13.5 -47.5t38.5 -18.5v-78z" />
    <glyph glyph-name="asciitilde" unicode="~" horiz-adv-x="513" 
d="M487 656q-9 -111 -41.5 -179t-110.5 -68q-36 0 -58.5 16.5t-34 39t-22.5 56.5q-9 31 -17.5 45.5t-24.5 14.5q-43 0 -56 -172l-96 11q9 112 42 179.5t110 67.5q37 0 59.5 -16.5t34 -39.5t22.5 -58q11 -32 18.5 -45.5t22.5 -13.5q27 0 39.5 49.5t17.5 123.5z" />
    <glyph glyph-name="uni00A0" unicode="&#xa0;" horiz-adv-x="256" 
 />
    <glyph glyph-name="exclamdown" unicode="&#xa1;" horiz-adv-x="262" 
d="M76 471.5q20 20.5 58 20.5q37 0 57 -20.5t20 -58.5t-20 -58.5t-57 -20.5q-38 0 -58 20.5t-20 58.5t20 58.5zM46 -178l23 441h126l22 -441h-171z" />
    <glyph glyph-name="cent" unicode="&#xa2;" horiz-adv-x="500" 
d="M86 407.5q58 67.5 151 83.5v74h102v-75q50 -9 86.5 -31t57.5 -52l-92 -87q-24 31 -58 40v-236q36 9 58 40l92 -87q-21 -30 -57.5 -53t-86.5 -31v-93h-102v92q-93 15 -151 83t-58 167q0 98 58 165.5zM195 165.5q21 -31.5 56 -42.5v237q-37 -11 -57 -42.5t-20 -75.5
q0 -45 21 -76.5z" />
    <glyph glyph-name="sterling" unicode="&#xa3;" horiz-adv-x="559" 
d="M24 269v90h64q-22 29 -33 54t-11 54q0 63 36.5 111t94 73.5t117.5 25.5q88 0 148 -30t93 -93l-126 -74q-13 32 -38.5 50t-56.5 18q-41 0 -67.5 -23.5t-26.5 -60.5q0 -26 7 -42.5t19.5 -35.5t17.5 -27h139v-90h-115q2 -12 2 -18q0 -27 -16 -54.5t-42 -44.5q19 7 46 7
q19 0 34.5 -4t34.5 -12q18 -7 30.5 -10.5t26.5 -3.5q29 0 50 10t33 25l62 -126q-49 -51 -151 -51q-31 0 -55 6.5t-56 19.5q-26 10 -40 14t-30 4q-47 0 -116 -38l-53 107q102 51 102 117q0 25 -11 52h-113z" />
    <glyph glyph-name="currency" unicode="&#xa4;" horiz-adv-x="536" 
d="M124 163l-63 -62l-26 27l62 62q-50 64 -50 143q0 82 51 144l-63 63l26 26l63 -62q61 52 144 52q40 0 77 -13.5t66 -38.5l63 62l27 -26l-63 -63q50 -61 50 -144q0 -81 -50 -143l63 -62l-27 -27l-62 62q-30 -26 -67 -39.5t-77 -13.5q-82 0 -144 53zM357.5 178
q40.5 24 63.5 65.5t23 89.5q0 49 -23 90t-63.5 65t-89.5 24t-89.5 -24t-63.5 -65t-23 -90q0 -48 23 -89.5t63.5 -65.5t89.5 -24t89.5 24z" />
    <glyph glyph-name="yen" unicode="&#xa5;" horiz-adv-x="651" 
d="M406 0h-160v113h-222v86h222v72h-222v86h167l-199 310h180l154 -255l152 255h181l-199 -310h168v-86h-222v-72h222v-86h-222v-113z" />
    <glyph glyph-name="brokenbar" unicode="&#xa6;" horiz-adv-x="218" 
d="M63 687h93v-316h-93v316zM63 296h93v-316h-93v316z" />
    <glyph glyph-name="section" unicode="&#xa7;" horiz-adv-x="489" 
d="M434 254.5q-21 -33.5 -60 -53.5q81 -36 81 -123q0 -73 -60.5 -116t-154.5 -43q-132 0 -220 79l58 90q29 -29 73.5 -50t88.5 -21q36 0 57 12.5t21 36.5t-24 35t-78 24q-56 13 -92 27t-62.5 44.5t-26.5 82.5q0 45 28 77.5t65 46.5q-46 18 -69.5 50.5t-23.5 76.5
q0 42 26.5 75.5t72.5 52.5t104 19q129 0 198 -67l-54 -84q-26 24 -62.5 38.5t-75.5 14.5q-34 0 -53 -12t-19 -34q0 -21 23 -30.5t74 -20.5q58 -13 95 -26.5t64 -44t27 -82.5q0 -41 -21 -74.5zM296 343.5q-19 15.5 -56 24.5q-37 -9 -52.5 -25.5t-15.5 -41.5q0 -29 25.5 -44.5
t65.5 -22.5q52 22 52 67q0 27 -19 42.5z" />
    <glyph glyph-name="dieresis" unicode="&#xa8;" horiz-adv-x="302" 
d="M97 560.5q-21 -21.5 -52 -21.5t-52.5 21.5t-21.5 52.5t21.5 52.5t52.5 21.5t52 -21.5t21 -52.5t-21 -52.5zM310 560.5q-22 -21.5 -53 -21.5q-30 0 -52 21.5t-22 52.5t22 52.5t52 21.5q31 0 53 -21.5t22 -52.5t-22 -52.5z" />
    <glyph glyph-name="copyright" unicode="&#xa9;" horiz-adv-x="778" 
d="M687.5 161q-46.5 -79 -125.5 -125.5t-173 -46.5q-93 0 -172.5 46.5t-126 126t-46.5 172.5q0 94 46.5 173t125.5 125.5t173 46.5t173 -46.5t125.5 -125.5t46.5 -173t-46.5 -173zM654.5 487.5q-41.5 70.5 -112 112t-153.5 41.5t-153.5 -41.5t-112 -112t-41.5 -153.5
t41.5 -153.5t112 -112t153.5 -41.5t153.5 41.5t112 112t41.5 153.5t-41.5 153.5zM545 192q-28 -32 -66.5 -50t-83.5 -18q-57 0 -104.5 27.5t-75.5 76t-28 107.5q0 60 28 108t75.5 75t104.5 27q45 0 83 -17.5t66 -49.5l-33 -33q-20 27 -50.5 42.5t-65.5 15.5
q-44 0 -80.5 -21.5t-57.5 -60t-21 -86.5t21.5 -86.5t57.5 -60.5t80 -22q35 0 66 15.5t51 42.5z" />
    <glyph glyph-name="ordfeminine" unicode="&#xaa;" horiz-adv-x="646" 
d="M443 500h142v-500h-142v38q-33 -25 -72.5 -38.5t-79.5 -13.5q-78 0 -134.5 34t-86.5 93.5t-30 135.5t30 136.5t86.5 94.5t134.5 34q41 0 80 -14t72 -39v39zM404 158q38 36 38 93q0 55 -38 90t-94 35t-92 -35t-36 -92t36 -92t92 -35t94 36z" />
    <glyph glyph-name="guillemotleft" unicode="&#xab;" horiz-adv-x="552" 
d="M320 63h-130l-160 180l160 177h130l-160 -177zM522 63h-129l-160 180l160 177h129l-160 -177z" />
    <glyph glyph-name="logicalnot" unicode="&#xac;" horiz-adv-x="519" 
d="M477 471v-273h-89v186h-359v87h448z" />
    <glyph glyph-name="registered" unicode="&#xae;" horiz-adv-x="494" 
d="M430.5 358.5q-28.5 -48.5 -77 -77t-106.5 -28.5t-106.5 28.5t-77 77t-28.5 106.5t28.5 106.5t77 77t106.5 28.5t106.5 -28.5t77 -77t28.5 -106.5t-28.5 -106.5zM402 555q-24 41 -65 65t-90 24t-90 -24t-65 -65t-24 -90q0 -48 24 -89.5t65 -65.5t90 -24t90 24t65 65.5
t24 89.5q0 49 -24 90zM305 343l-63 96h-41v-96h-35v243h99q32 0 56 -20.5t24 -53.5q0 -24 -11.5 -40t-26 -24t-24.5 -8l65 -97h-43zM295.5 543.5q-13.5 12.5 -30.5 12.5h-64v-86h64q17 0 30.5 12t13.5 30q0 19 -13.5 31.5z" />
    <glyph glyph-name="macron" unicode="&#xaf;" horiz-adv-x="363" 
d="M363 589h-363v79h363v-79z" />
    <glyph glyph-name="degree" unicode="&#xb0;" horiz-adv-x="317" 
d="M278.5 468q-18.5 -32 -50.5 -50.5t-70 -18.5t-70 18.5t-50.5 50.5t-18.5 70q0 37 18.5 69t50.5 51t70 19t70 -18.5t50.5 -50.5t18.5 -70t-18.5 -70zM203 583q-19 19 -45 19t-44.5 -19t-18.5 -45t18.5 -44.5t44.5 -18.5t45 18.5t19 44.5t-19 45z" />
    <glyph glyph-name="plusminus" unicode="&#xb1;" horiz-adv-x="506" 
d="M477 327h-176v-201h-95v201h-177v86h177v193h95v-193h176v-86zM477 0h-448v86h448v-86z" />
    <glyph glyph-name="uni00B2" unicode="&#xb2;" horiz-adv-x="608" 
d="M572 143v-142h-531v32q7 100 57 195.5t159 138.5l33 14q68 27 102 49t34 56q0 29 -17 50t-42 31.5t-50 10.5q-59 0 -99 -22.5t-48 -69.5l-141 15q9 66 50.5 114t104 73.5t133.5 25.5q64 0 122.5 -27t94.5 -77t36 -116t-32 -111t-85.5 -74.5t-138.5 -61.5
q-64 -24 -95 -104h353z" />
    <glyph glyph-name="uni00B3" unicode="&#xb3;" horiz-adv-x="608" 
d="M547 300q21 -41 21 -89q0 -63 -35.5 -114t-96.5 -80t-135 -29q-72 0 -132.5 27.5t-96 76.5t-36.5 109l156 11q6 -36 36.5 -59.5t72.5 -23.5q51 0 84.5 25t33.5 64q0 40 -33.5 65.5t-84.5 25.5h-38v120h38q45 0 74 21t29 54t-30 54.5t-76 21.5q-33 0 -61.5 -15t-39.5 -39
l-148 9q6 51 40.5 91.5t89 63.5t119.5 23q73 0 130 -27t89.5 -74.5t32.5 -107.5q0 -39 -16.5 -73t-46.5 -60q39 -30 60 -71z" />
    <glyph glyph-name="acute" unicode="&#xb4;" horiz-adv-x="258" 
d="M0 556l130 144h128l-160 -144h-98z" />
    <glyph glyph-name="uni00B5" unicode="&#xb5;" horiz-adv-x="590" 
d="M202 -184h-143v667h143v-286q0 -83 84 -83q58 0 99 51v318h143v-400q0 -52 18 -79l-135 -7q-23 17 -26 62q-25 -28 -61.5 -45t-75.5 -17q-25 0 -46 7v-188z" />
    <glyph glyph-name="paragraph" unicode="&#xb6;" horiz-adv-x="449" 
d="M342 -100v700h-75v-700h-68v423q-47 0 -86.5 23t-62.5 62.5t-23 86.5t23 86.5t62.5 62.5t86.5 23h211v-767h-68z" />
    <glyph glyph-name="periodcentered" unicode="&#xb7;" horiz-adv-x="264" 
d="M57 167v155h152v-155h-152z" />
    <glyph glyph-name="cedilla" unicode="&#xb8;" horiz-adv-x="226" 
d="M47 -188q-30 9 -47 24l27 54q40 -29 82 -29q20 0 34.5 8t14.5 22q0 24 -27 24q-18 0 -30 -14l-50 29l30 81h68l-26 -61q14 10 35 10q28 0 48 -20t20 -51q0 -39 -32.5 -62.5t-80.5 -23.5q-36 0 -66 9z" />
    <glyph glyph-name="uni00B9" unicode="&#xb9;" horiz-adv-x="608" 
d="M385 700v-557h184v-143h-530v143h196v393l-98 -65l-80 117l178 112h150z" />
    <glyph glyph-name="ordmasculine" unicode="&#xba;" horiz-adv-x="595" 
d="M165.5 20.5q-60.5 35.5 -96 96.5t-35.5 132q0 72 35.5 132.5t96 96t132.5 35.5q71 0 131.5 -35.5t96 -96t35.5 -132.5q0 -71 -35.5 -132t-96 -96.5t-131.5 -35.5q-72 0 -132.5 35.5zM383 163.5q36 35.5 36 85.5t-36 86t-86 36t-85.5 -36t-35.5 -86t35.5 -85.5t85.5 -35.5
t86 35.5z" />
    <glyph glyph-name="guillemotright" unicode="&#xbb;" horiz-adv-x="552" 
d="M320 243l-160 -180h-130l160 180l-160 177h130zM522 243l-160 -180h-129l160 180l-160 177h129z" />
    <glyph glyph-name="questiondown" unicode="&#xbf;" horiz-adv-x="454" 
d="M309 506v-155h-152v155h152zM301 286v-81q0 -45 -20 -72t-57 -57q-23 -18 -34.5 -31t-11.5 -29q0 -21 16.5 -34t50.5 -13q31 0 60.5 15t52.5 41l90 -102q-41 -47 -99 -71t-121 -24q-97 0 -154.5 43.5t-57.5 115.5q0 38 13 66.5t31 47t46 41.5q30 25 43.5 41t13.5 39v64
h138z" />
    <glyph glyph-name="Agrave" unicode="&#xc0;" 
 />
    <glyph glyph-name="Aacute" unicode="&#xc1;" 
 />
    <glyph glyph-name="Acircumflex" unicode="&#xc2;" 
 />
    <glyph glyph-name="Atilde" unicode="&#xc3;" 
 />
    <glyph glyph-name="Adieresis" unicode="&#xc4;" 
 />
    <glyph glyph-name="Aring" unicode="&#xc5;" 
 />
    <glyph glyph-name="AE" unicode="&#xc6;" 
 />
    <glyph glyph-name="Ccedilla" unicode="&#xc7;" 
 />
    <glyph glyph-name="Egrave" unicode="&#xc8;" 
 />
    <glyph glyph-name="Eacute" unicode="&#xc9;" 
 />
    <glyph glyph-name="Ecircumflex" unicode="&#xca;" 
 />
    <glyph glyph-name="Edieresis" unicode="&#xcb;" 
 />
    <glyph glyph-name="Igrave" unicode="&#xcc;" 
 />
    <glyph glyph-name="Iacute" unicode="&#xcd;" 
 />
    <glyph glyph-name="Icircumflex" unicode="&#xce;" 
 />
    <glyph glyph-name="Idieresis" unicode="&#xcf;" 
 />
    <glyph glyph-name="Eth" unicode="&#xd0;" 
 />
    <glyph glyph-name="Ntilde" unicode="&#xd1;" 
 />
    <glyph glyph-name="Ograve" unicode="&#xd2;" 
 />
    <glyph glyph-name="Oacute" unicode="&#xd3;" 
 />
    <glyph glyph-name="Ocircumflex" unicode="&#xd4;" 
 />
    <glyph glyph-name="Otilde" unicode="&#xd5;" 
 />
    <glyph glyph-name="Odieresis" unicode="&#xd6;" 
 />
    <glyph glyph-name="multiply" unicode="&#xd7;" horiz-adv-x="506" 
d="M315 334l138 -139l-61 -61l-139 139l-138 -139l-62 61l139 139l-139 139l62 61l138 -139l139 139l61 -61z" />
    <glyph glyph-name="Oslash" unicode="&#xd8;" 
 />
    <glyph glyph-name="Ugrave" unicode="&#xd9;" 
 />
    <glyph glyph-name="Uacute" unicode="&#xda;" 
 />
    <glyph glyph-name="Ucircumflex" unicode="&#xdb;" 
 />
    <glyph glyph-name="Udieresis" unicode="&#xdc;" 
 />
    <glyph glyph-name="Yacute" unicode="&#xdd;" 
 />
    <glyph glyph-name="Thorn" unicode="&#xde;" 
 />
    <glyph glyph-name="germandbls" unicode="&#xdf;" 
 />
    <glyph glyph-name="agrave" unicode="&#xe0;" 
 />
    <glyph glyph-name="aacute" unicode="&#xe1;" 
 />
    <glyph glyph-name="acircumflex" unicode="&#xe2;" 
 />
    <glyph glyph-name="atilde" unicode="&#xe3;" 
 />
    <glyph glyph-name="adieresis" unicode="&#xe4;" 
 />
    <glyph glyph-name="aring" unicode="&#xe5;" 
 />
    <glyph glyph-name="ae" unicode="&#xe6;" 
 />
    <glyph glyph-name="ccedilla" unicode="&#xe7;" 
 />
    <glyph glyph-name="egrave" unicode="&#xe8;" 
 />
    <glyph glyph-name="eacute" unicode="&#xe9;" 
 />
    <glyph glyph-name="ecircumflex" unicode="&#xea;" 
 />
    <glyph glyph-name="edieresis" unicode="&#xeb;" 
 />
    <glyph glyph-name="igrave" unicode="&#xec;" 
 />
    <glyph glyph-name="iacute" unicode="&#xed;" 
 />
    <glyph glyph-name="icircumflex" unicode="&#xee;" 
 />
    <glyph glyph-name="idieresis" unicode="&#xef;" 
 />
    <glyph glyph-name="eth" unicode="&#xf0;" 
 />
    <glyph glyph-name="ntilde" unicode="&#xf1;" 
 />
    <glyph glyph-name="ograve" unicode="&#xf2;" 
 />
    <glyph glyph-name="oacute" unicode="&#xf3;" 
 />
    <glyph glyph-name="ocircumflex" unicode="&#xf4;" 
 />
    <glyph glyph-name="otilde" unicode="&#xf5;" 
 />
    <glyph glyph-name="odieresis" unicode="&#xf6;" 
 />
    <glyph glyph-name="divide" unicode="&#xf7;" horiz-adv-x="511" 
d="M301.5 466.5q-19.5 -19.5 -46.5 -19.5q-26 0 -45.5 19.5t-19.5 46.5t19 45.5t46 18.5q28 0 47 -18.5t19 -45.5t-19.5 -46.5zM29 381h453v-87h-453v87zM302 115q-19 -19 -47 -19q-27 0 -46 19t-19 46t19 46t46 19q28 0 47 -19t19 -46t-19 -46z" />
    <glyph glyph-name="oslash" unicode="&#xf8;" 
 />
    <glyph glyph-name="ugrave" unicode="&#xf9;" 
 />
    <glyph glyph-name="uacute" unicode="&#xfa;" 
 />
    <glyph glyph-name="ucircumflex" unicode="&#xfb;" 
 />
    <glyph glyph-name="udieresis" unicode="&#xfc;" 
 />
    <glyph glyph-name="yacute" unicode="&#xfd;" 
 />
    <glyph glyph-name="thorn" unicode="&#xfe;" 
 />
    <glyph glyph-name="ydieresis" unicode="&#xff;" 
 />
    <glyph glyph-name="dotlessi" unicode="&#x131;" 
 />
    <glyph glyph-name="Lslash" unicode="&#x141;" 
 />
    <glyph glyph-name="lslash" unicode="&#x142;" 
 />
    <glyph glyph-name="OE" unicode="&#x152;" 
 />
    <glyph glyph-name="oe" unicode="&#x153;" 
 />
    <glyph glyph-name="Scaron" unicode="&#x160;" 
 />
    <glyph glyph-name="scaron" unicode="&#x161;" 
 />
    <glyph glyph-name="Ydieresis" unicode="&#x178;" 
 />
    <glyph glyph-name="Zcaron" unicode="&#x17d;" 
 />
    <glyph glyph-name="zcaron" unicode="&#x17e;" 
 />
    <glyph glyph-name="florin" unicode="&#x192;" horiz-adv-x="461" 
d="M253 234l-88 -395h-162l87 395h-50v125h77l34 154q16 73 73.5 118.5t131.5 45.5q84 0 125 -44l-59 -116q-18 21 -46 21q-25 0 -43.5 -15.5t-25.5 -44.5l-27 -119h106v-125h-133z" />
    <glyph glyph-name="circumflex" unicode="&#x2c6;" horiz-adv-x="310" 
d="M310 556h-86l-70 85l-68 -85h-86l91 144h126z" />
    <glyph glyph-name="caron" unicode="&#x2c7;" horiz-adv-x="310" 
d="M220 556h-126l-94 144h86l71 -85l67 85h86z" />
    <glyph glyph-name="breve" unicode="&#x2d8;" horiz-adv-x="351" 
d="M351 636q-31 -42 -76.5 -65t-98.5 -23t-98.5 23t-77.5 65l62 51q20 -28 49 -44t65 -16q71 0 114 60z" />
    <glyph glyph-name="dotaccent" unicode="&#x2d9;" horiz-adv-x="192" 
d="M44.5 560.5q-21.5 21.5 -21.5 52.5t21.5 52.5t52.5 21.5q30 0 51.5 -21.5t21.5 -52.5t-21.5 -52.5t-51.5 -21.5q-31 0 -52.5 21.5z" />
    <glyph glyph-name="ring" unicode="&#x2da;" horiz-adv-x="213" 
d="M32 576q-32 32 -32 75q0 44 31.5 76t75.5 32t75 -32t31 -76t-31 -75.5t-75 -31.5q-43 0 -75 32zM137.5 620.5q12.5 12.5 12.5 30.5t-12.5 31t-30.5 13t-30.5 -13t-12.5 -31q0 -17 12.5 -30t30.5 -13t30.5 12.5z" />
    <glyph glyph-name="ogonek" unicode="&#x2db;" horiz-adv-x="199" 
d="M137 0q-69 -35 -69 -89q0 -20 10 -29.5t25 -9.5q29 0 41 32l55 -35q-31 -55 -96 -55q-45 0 -74 23t-29 68q0 79 89 127z" />
    <glyph glyph-name="tilde" unicode="&#x2dc;" horiz-adv-x="331" 
d="M179 564q-17 10 -34 28q-13 12 -21 17.5t-18 5.5q-14 0 -23.5 -14t-9.5 -41h-73q0 66 28.5 100t82.5 34q25 0 41.5 -10t33.5 -27q13 -12 21 -17.5t18 -5.5q15 0 24 13.5t9 40.5h73q0 -66 -28.5 -100t-81.5 -34q-25 0 -42 10z" />
    <glyph glyph-name="hungarumlaut" unicode="&#x2dd;" horiz-adv-x="348" 
d="M0 556l85 144h112l-115 -144h-82zM151 556l85 144h112l-115 -144h-82z" />
    <glyph glyph-name="gravecomb" unicode="&#x300;" horiz-adv-x="0" 
d="M-258 700h128l131 -144h-99z" />
    <glyph glyph-name="acutecomb" unicode="&#x301;" horiz-adv-x="0" 
d="M-258 556l130 144h129l-161 -144h-98z" />
    <glyph glyph-name="uni0302" unicode="&#x302;" horiz-adv-x="0" 
d="M0 556h-86l-70 85l-68 -85h-86l91 144h126z" />
    <glyph glyph-name="tildecomb" unicode="&#x303;" horiz-adv-x="0" 
d="M-152 564q-17 10 -34 28q-13 12 -21 17.5t-18 5.5q-14 0 -23.5 -14t-9.5 -41h-73q0 66 28.5 100t82.5 34q25 0 41.5 -10t33.5 -27q13 -12 21 -17.5t18 -5.5q15 0 24 13.5t9 40.5h73q0 -66 -28.5 -100t-81.5 -34q-25 0 -42 10z" />
    <glyph glyph-name="uni0304" unicode="&#x304;" horiz-adv-x="0" 
d="M0 589h-363v79h363v-79z" />
    <glyph glyph-name="uni0306" unicode="&#x306;" horiz-adv-x="0" 
d="M0 636q-31 -42 -76.5 -65t-98.5 -23t-98.5 23t-77.5 65l62 51q20 -28 49 -44t65 -16q71 0 114 60z" />
    <glyph glyph-name="uni0307" unicode="&#x307;" horiz-adv-x="0" 
d="M-383 574v155h152v-155h-152z" />
    <glyph glyph-name="uni0308" unicode="&#x308;" horiz-adv-x="0" 
d="M-205 560.5q-21 -21.5 -52 -21.5t-52.5 21.5t-21.5 52.5t21.5 52.5t52.5 21.5t52 -21.5t21 -52.5t-21 -52.5zM8.5 560.5q-22.5 -21.5 -53.5 -21.5q-30 0 -52 21.5t-22 52.5t22 52.5t52 21.5q31 0 53.5 -21.5t22.5 -52.5t-22.5 -52.5z" />
    <glyph glyph-name="uni030A" unicode="&#x30a;" horiz-adv-x="0" 
d="M-181.5 576q-31.5 32 -31.5 75q0 44 31.5 76t75.5 32t75 -32t31 -76t-31 -75.5t-75 -31.5t-75.5 32zM-75.5 620.5q12.5 12.5 12.5 30.5t-12.5 31t-30.5 13t-30.5 -13t-12.5 -31q0 -17 12.5 -30t30.5 -13t30.5 12.5z" />
    <glyph glyph-name="uni0326" unicode="&#x326;" horiz-adv-x="0" 
d="M-208 -239v155h153v-155l-97 -126l-43 37l39 89h-52z" />
    <glyph glyph-name="uni0328" unicode="&#x328;" horiz-adv-x="0" 
d="M-62 0q-69 -35 -69 -89q0 -20 10 -29.5t25 -9.5q29 0 41 32l55 -35q-31 -55 -96 -55q-45 0 -74 23t-29 68q0 79 89 127z" />
    <glyph glyph-name="uni0335" unicode="&#x335;" horiz-adv-x="0" 
d="M-234 261h-365v140h365v-140z" />
    <glyph glyph-name="uni0337" unicode="&#x337;" horiz-adv-x="0" 
d="M-417 110l-105 88l350 343l105 -89z" />
    <glyph glyph-name="uni0338" unicode="&#x338;" horiz-adv-x="0" 
d="M-535 -36l-68 65l453 540l68 -64z" />
    <glyph glyph-name="tonos" unicode="&#x384;" horiz-adv-x="494" 
d="M211 765h150l-81 -190h-108z" />
    <glyph glyph-name="uni2009" unicode="&#x2009;" horiz-adv-x="463" 
 />
    <glyph glyph-name="endash" unicode="&#x2013;" horiz-adv-x="593" 
d="M563 182h-533v120h533v-120z" />
    <glyph glyph-name="emdash" unicode="&#x2014;" horiz-adv-x="833" 
d="M803 182h-773v120h773v-120z" />
    <glyph glyph-name="quoteleft" unicode="&#x2018;" horiz-adv-x="260" 
d="M154 542q33 -10 42.5 -24t9.5 -53q0 -38 -20 -58.5t-58 -20.5q-37 0 -58.5 21t-21.5 58q0 43 9.5 69t36.5 62l56 72l43 -37z" />
    <glyph glyph-name="quoteright" unicode="&#x2019;" horiz-adv-x="260" 
d="M106 522q-33 10 -42.5 24t-9.5 53q0 38 20.5 58t57.5 20t58.5 -21t21.5 -58q0 -42 -9.5 -68t-36.5 -62l-56 -72l-43 36z" />
    <glyph glyph-name="quotesinglbase" unicode="&#x201a;" horiz-adv-x="260" 
d="M106 -9q-33 10 -42.5 24t-9.5 52t20 58.5t58 20.5t59 -21.5t21 -59.5q-1 -42 -10.5 -67.5t-35.5 -60.5l-56 -73l-43 37z" />
    <glyph glyph-name="quotereversed" unicode="&#x201b;" horiz-adv-x="260" 
d="M193 432l-43 -36l-56 72q-27 36 -36.5 62t-9.5 68q0 37 21.5 58t58.5 21q38 0 58 -20t20 -58q0 -39 -9.5 -53t-42.5 -24z" />
    <glyph glyph-name="quotedblleft" unicode="&#x201c;" horiz-adv-x="468" 
d="M162 543q33 -10 42 -24t9 -53q0 -37 -20 -57.5t-58 -20.5q-36 0 -57.5 21t-21.5 58q0 42 9.5 67.5t35.5 62.5l56 72l44 -36zM353 543q33 -10 42.5 -24t9.5 -53q0 -37 -20.5 -57.5t-57.5 -20.5t-58.5 21t-21.5 58q0 42 9.5 67.5t35.5 62.5l56 72l44 -36z" />
    <glyph glyph-name="quotedblright" unicode="&#x201d;" horiz-adv-x="469" 
d="M111 522q-33 10 -42.5 24t-9.5 53q0 38 20.5 58t57.5 20t58.5 -21t21.5 -58q0 -42 -9.5 -68t-36.5 -62l-56 -72l-43 36zM303 522q-33 10 -42 24t-9 53q0 38 20.5 58t57.5 20q36 0 57.5 -21t21.5 -58q0 -42 -9.5 -67.5t-35.5 -62.5l-56 -72l-44 36z" />
    <glyph glyph-name="quotedblbase" unicode="&#x201e;" horiz-adv-x="479" 
d="M118 -6q-33 10 -42.5 24t-9.5 53q0 38 20.5 58.5t57.5 20.5t58.5 -21t21.5 -58q0 -43 -9 -68.5t-36 -62.5l-56 -72l-44 36zM311 -6q-33 10 -42.5 24t-9.5 53q0 38 20 58.5t58 20.5q37 0 58.5 -21.5t21.5 -59.5q-1 -43 -10 -68.5t-36 -60.5l-56 -72l-43 36z" />
    <glyph glyph-name="dagger" unicode="&#x2020;" horiz-adv-x="281" 
d="M173 584l89 3v-67l-89 4l4 -197h-74l5 197l-89 -4v67l89 -3l-5 93h74z" />
    <glyph glyph-name="daggerdbl" unicode="&#x2021;" horiz-adv-x="281" 
d="M177 677l-4 -93l89 3v-67l-89 4v-189l89 4v-67l-89 3l4 -95h-74l4 95l-88 -3v67l88 -4v189l-88 -4v67l88 -3l-4 93h74z" />
    <glyph glyph-name="bullet" unicode="&#x2022;" horiz-adv-x="358" 
d="M285.5 182q-16.5 -28 -44.5 -44.5t-61 -16.5t-61 16.5t-44.5 44.5t-16.5 60q0 50 36 86t86 36q51 0 86.5 -35.5t35.5 -86.5q0 -32 -16.5 -60z" />
    <glyph glyph-name="ellipsis" unicode="&#x2026;" horiz-adv-x="791" 
d="M82.5 125.5q20.5 20.5 57.5 20.5t57 -20.5t20 -58.5t-20 -58.5t-57 -20.5t-57.5 20.5t-20.5 58.5t20.5 58.5zM337.5 125.5q20.5 20.5 57.5 20.5t57 -20.5t20 -58.5t-20 -58.5t-57 -20.5t-57.5 20.5t-20.5 58.5t20.5 58.5zM592.5 125.5q20.5 20.5 57.5 20.5t57 -20.5
t20 -58.5t-20 -58.5t-57 -20.5t-57.5 20.5t-20.5 58.5t20.5 58.5z" />
    <glyph glyph-name="perthousand" unicode="&#x2030;" horiz-adv-x="1133" 
d="M347.5 425q-21.5 -38 -61 -59.5t-90.5 -21.5t-90 21.5t-60.5 59.5t-21.5 84q0 47 21.5 85.5t60.5 60.5t90 22t90.5 -22t61 -60.5t21.5 -85.5q0 -46 -21.5 -84zM639 667l-427 -667h-82l426 667h83zM249 576.5q-20 23.5 -53 23.5q-32 0 -52 -23.5t-20 -67.5q0 -42 20 -65
t52 -23t52.5 23t20.5 65q0 44 -20 67.5zM719.5 70q-21.5 -38 -60.5 -60t-90 -22t-90 22t-60.5 60t-21.5 84q0 47 21.5 85.5t60.5 60.5t90 22t90 -22t60.5 -60.5t21.5 -85.5q0 -46 -21.5 -84zM1087.5 70q-21.5 -38 -61 -60t-90.5 -22t-90 22t-60 60t-21 84q0 47 21 85.5
t60 60.5t90 22t90.5 -22t61 -60.5t21.5 -85.5q0 -46 -21.5 -84zM622 220.5q-20 23.5 -53 23.5t-53 -23.5t-20 -66.5q0 -42 20 -65.5t53 -23.5t53 23.5t20 65.5q0 43 -20 66.5zM989.5 220.5q-20.5 23.5 -53.5 23.5q-32 0 -52 -23.5t-20 -66.5q0 -42 20 -65.5t52 -23.5
q33 0 53.5 23.5t20.5 65.5q0 43 -20.5 66.5z" />
    <glyph glyph-name="guilsinglleft" unicode="&#x2039;" horiz-adv-x="350" 
d="M320 63h-130l-160 180l160 177h130l-160 -177z" />
    <glyph glyph-name="guilsinglright" unicode="&#x203a;" horiz-adv-x="350" 
d="M320 243l-160 -180h-130l160 180l-160 177h130z" />
    <glyph glyph-name="colonmonetary" unicode="&#x20a1;" horiz-adv-x="701" 
d="M365 -10l-29 -90h-31l31 94q-51 8 -91 29l-41 -123h-31l46 138q-72 46 -113 123t-41 172q0 99 44 177.5t120 123t169 44.5l36 -2l31 92h31l-33 -97q46 -9 90 -34l44 131h31l-50 -147q26 -18 52 -48l-25 -22q-15 18 -38 37l-191 -569q5 -1 22 -1q62 0 116.5 26t90.5 71
l26 -21q-94 -106 -233 -106zM134.5 180q34.5 -69 95.5 -111l194 578q-5 1 -26 1q-84 0 -152 -40.5t-107 -112t-39 -162.5q0 -84 34.5 -153zM256 53q38 -22 90 -31l196 584q-42 27 -88 36z" />
    <glyph glyph-name="frenchfranc" unicode="&#x20a3;" horiz-adv-x="586" 
d="M71 181v486h481v-139h-322v-120h315v-139h-315v-88h141v-80h-141v-101h-159v101h-63v80h63z" />
    <glyph glyph-name="lira" unicode="&#x20a4;" horiz-adv-x="559" 
d="M401 406v-71h-132q14 -25 18 -47h114v-71h-125q-10 -39 -46 -65q19 7 46 7q19 0 34.5 -4t34.5 -12q18 -7 30.5 -10.5t26.5 -3.5q29 0 50 10t33 25l62 -126q-49 -51 -151 -51q-31 0 -55 6.5t-56 19.5q-26 10 -40 14t-30 4q-47 0 -116 -38l-53 107q45 23 73 52.5t29 64.5
h-124v71h105q-7 16 -30 47h-75v71h38q-18 31 -18 61q0 63 36.5 111t94 73.5t117.5 25.5q88 0 148 -30t93 -93l-126 -74q-13 32 -38.5 50t-56.5 18q-41 0 -67.5 -23.5t-26.5 -60.5q0 -29 19 -58h164z" />
    <glyph glyph-name="peseta" unicode="&#x20a7;" horiz-adv-x="688" 
d="M621 386q-11 -89 -70.5 -145t-154.5 -56h-166v-185h-159v386h-63v80h63v201h325q95 0 154.5 -56.5t70.5 -144.5h63v-80h-63zM454 466q-8 29 -28.5 45.5t-49.5 16.5h-146v-62h224zM376 324q29 0 50.5 16.5t28.5 45.5h-225v-62h146z" />
    <glyph glyph-name="uni20A8" unicode="&#x20a8;" horiz-adv-x="1087" 
d="M437 0l-120 230h-95v-230h-159v667h324q71 0 122.5 -28.5t79 -78.5t27.5 -112q0 -80 -40.5 -131t-98.5 -68l142 -249h-182zM364 369q39 0 64.5 21.5t25.5 58.5q0 36 -25.5 57.5t-64.5 21.5h-142v-159h142zM722.5 8.5q-60.5 20.5 -98.5 54.5l60 96q28 -26 77.5 -45
t91.5 -19q35 0 53 12t18 32q0 19 -22 27.5t-71 18.5q-59 12 -96.5 25.5t-65.5 44.5t-28 86q0 42 24 77t70 56t109 21q115 0 199 -65l-55 -92q-25 23 -63.5 38.5t-79.5 15.5q-30 0 -48.5 -11.5t-18.5 -29.5q0 -16 20.5 -24t64.5 -16q59 -12 99 -26.5t69.5 -47.5t29.5 -90
q0 -46 -26 -82t-74.5 -56.5t-114.5 -20.5q-63 0 -123.5 20.5z" />
    <glyph glyph-name="uni20AA" unicode="&#x20aa;" horiz-adv-x="852" 
d="M357 550q129 0 183 -56t54 -164v-150h-134v137q0 58 -22.5 84.5t-80.5 26.5h-164v-428h-134v550h298zM258 0v369h134v-247h164q58 0 80.5 26.5t22.5 84.5v317h134v-329q0 -109 -53.5 -165t-183.5 -56h-298z" />
    <glyph glyph-name="Euro" unicode="&#x20ac;" horiz-adv-x="713" 
d="M260 17q-70 29 -119.5 83t-71.5 125h-50v79h36q-1 9 -1 29t1 32h-36v79h51q34 107 126.5 170.5t215.5 63.5q107 0 176.5 -48.5t108.5 -123.5l-136 -66q-19 42 -60 69.5t-89 27.5q-53 0 -95.5 -25t-64.5 -68h220v-79h-254q-2 -10 -2 -32q0 -18 2 -29h254v-79h-223
q23 -44 66 -70t97 -26q48 0 89 27.5t60 69.5l137 -65q-40 -75 -110 -124t-176 -49q-82 0 -152 29z" />
    <glyph glyph-name="uni2113" unicode="&#x2113;" horiz-adv-x="540" 
d="M202 152q0 -23 11.5 -37t31.5 -14q26 0 42 13l28 -94q-17 -16 -46.5 -24t-63.5 -8q-69 0 -107 34t-38 104v356q0 56 30.5 100.5t85.5 69.5t124 25q57 0 107.5 -19t80.5 -53t30 -78q0 -52 -42 -96.5t-118 -94.5l-156 -103v-81zM310 436q41 27 57 44.5t16 39.5
q0 26 -25.5 42.5t-60.5 16.5q-44 0 -69.5 -26t-25.5 -71v-118z" />
    <glyph glyph-name="uni2116" unicode="&#x2116;" horiz-adv-x="1140" 
d="M845 372.5q-40 22.5 -61.5 60.5t-21.5 82q0 45 21.5 82.5t61.5 60t92 22.5q53 0 93 -22.5t61.5 -60t21.5 -82.5t-21.5 -82.5t-61.5 -60t-93 -22.5q-52 0 -92 22.5zM513 667h160v-667h-154l-297 407v-407h-159v667h164l286 -389v389zM989 454q19 22 19 61t-19 60.5
t-52 21.5t-51 -21.5t-18 -60.5q0 -40 18.5 -61.5t50.5 -21.5q33 0 52 22z" />
    <glyph glyph-name="uni2117" unicode="&#x2117;" horiz-adv-x="778" 
d="M687.5 161.5q-46.5 -79.5 -126 -126t-172.5 -46.5t-172.5 46.5t-126 126t-46.5 172.5t46.5 172.5t126 126t172.5 46.5q94 0 173 -46.5t125.5 -125.5t46.5 -173q0 -93 -46.5 -172.5zM654.5 487.5q-41.5 70.5 -112 112t-153.5 41.5t-153.5 -41.5t-112 -112t-41.5 -153.5
t41.5 -153.5t112 -112t153.5 -41.5t153.5 41.5t112 112t41.5 153.5t-41.5 153.5zM519 330.5q-37 -33.5 -90 -33.5h-112v-166h-48v405h160q52 0 89.5 -33.5t37.5 -87.5q0 -51 -37 -84.5zM483.5 471q-22.5 22 -54.5 22h-112v-153h112q31 0 54 21.5t23 53.5q0 34 -22.5 56z" />
    <glyph glyph-name="uni2120" unicode="&#x2120;" horiz-adv-x="476" 
d="M165.5 457q-22.5 -18 -64.5 -18q-54 0 -86 36l18 21q29 -32 66 -32q56 0 56 39q0 17 -20 29t-48 16t-48 20t-20 41q0 28 22.5 46t57.5 18q55 0 82 -32l-18 -19q-22 27 -63 27q-21 0 -34.5 -10t-13.5 -26q0 -29 68 -41q29 -5 48.5 -22t19.5 -44q0 -31 -22.5 -49zM396 667
h43v-220h-28v182l-75 -182h-8l-75 182v-182h-28v220h43l64 -160z" />
    <glyph glyph-name="trademark" unicode="&#x2122;" horiz-adv-x="356" 
d="M65 667h85v-15h-34v-109h-16v109h-35v15zM267 667h24v-124h-16v102l-42 -69h-4l-43 69v-102h-15v124h24l36 -57z" />
    <glyph glyph-name="uni2126" unicode="&#x2126;" horiz-adv-x="766" 
d="M162 140q-61 42 -96.5 100.5t-35.5 130.5q0 93 45.5 163t126 107t181.5 37t181.5 -37t126 -107t45.5 -163q0 -72 -35.5 -130.5t-96.5 -100.5h115v-140h-278v140q62 17 97 72t35 123q0 50 -20 96t-63 75.5t-107 29.5q-65 0 -108 -29.5t-63 -75.5t-20 -96q0 -68 35.5 -123
t97.5 -72v-140h-278v140h115z" />
    <glyph glyph-name="estimated" unicode="&#x212e;" horiz-adv-x="842" 
d="M811 324h-632q-5 0 -5 -5v-190q0 -14 9 -23q97 -103 240 -103q151 0 250 115h57q-55 -64 -136 -100t-173 -36q-106 0 -195.5 47.5t-142 128t-52.5 175.5t52.5 175.5t142 128t195.5 47.5t195.5 -47.5t142 -128t52.5 -175.5v-9zM668 540q0 14 -10 24q-97 99 -235 99
q-140 0 -239 -102q-10 -10 -10 -24v-188q0 -6 5 -6h485q4 0 4 6v191z" />
    <glyph glyph-name="arrowleft" unicode="&#x2190;" horiz-adv-x="582" 
d="M538 211h-269l12 -130l-281 205l281 204l-12 -129h269v-150z" />
    <glyph glyph-name="arrowup" unicode="&#x2191;" horiz-adv-x="582" 
d="M216 17v269l-130 -12l205 281l204 -281l-129 12v-269h-150z" />
    <glyph glyph-name="arrowright" unicode="&#x2192;" horiz-adv-x="582" 
d="M584 286l-281 -205l12 130h-268v150h268l-12 129z" />
    <glyph glyph-name="arrowdown" unicode="&#x2193;" horiz-adv-x="582" 
d="M366 555v-269l130 12l-205 -281l-204 281l129 -12v269h150z" />
    <glyph glyph-name="partialdiff" unicode="&#x2202;" horiz-adv-x="575" 
d="M150 19.5q-59 31.5 -90.5 85t-31.5 117.5q0 63 28 116.5t76.5 85t107.5 31.5q107 0 154 -78q-58 149 -211 231l114 77q66 -40 123 -105.5t92.5 -149t35.5 -171.5q0 -82 -31.5 -143t-90.5 -94.5t-139 -33.5q-78 0 -137 31.5zM370.5 143.5q30.5 29.5 30.5 78.5
q0 48 -30.5 77.5t-83.5 29.5q-52 0 -82 -29.5t-30 -77.5q0 -49 30 -78.5t82 -29.5q53 0 83.5 29.5z" />
    <glyph glyph-name="uni2206" unicode="&#x2206;" horiz-adv-x="692" 
d="M700 0h-708l254 667h200zM476 140l-130 369l-130 -369h260z" />
    <glyph glyph-name="product" unicode="&#x220f;" horiz-adv-x="811" 
d="M685 -90h-159v618h-240v-618h-160v618h-103v139h765v-139h-103v-618z" />
    <glyph glyph-name="summation" unicode="&#x2211;" horiz-adv-x="589" 
d="M44 528v139h502v-139h-303l191 -232l-198 -246h310v-140h-503v140l195 245z" />
    <glyph glyph-name="minus" unicode="&#x2212;" horiz-adv-x="506" 
d="M477 378v-86h-448v86h448z" />
    <glyph glyph-name="radical" unicode="&#x221a;" horiz-adv-x="670" 
d="M542 667h105l-249 -667h-92l-107 295l-124 -43l-26 83l212 70l93 -263z" />
    <glyph glyph-name="infinity" unicode="&#x221e;" horiz-adv-x="700" 
d="M104 180.5q-38 25.5 -56.5 67t-18.5 88.5t18 88t56.5 66.5t95.5 25.5q48 0 88.5 -27t62.5 -70q22 43 62.5 70t88.5 27q57 0 95.5 -25.5t56.5 -67t18 -88.5q0 -74 -42.5 -127t-127.5 -53q-48 0 -88.5 27t-62.5 70q-22 -43 -62.5 -70t-88.5 -27q-57 0 -95 25.5zM270 265.5
q26 25.5 41 70.5q-15 45 -40.5 70t-58.5 25q-39 0 -64.5 -26t-25.5 -69t25.5 -69.5t64.5 -26.5q32 0 58 25.5zM552.5 266.5q25.5 25.5 25.5 68.5q0 44 -25 70t-64 26q-33 0 -58.5 -25.5t-40.5 -70.5q15 -45 40.5 -69.5t58.5 -24.5q38 0 63.5 25.5z" />
    <glyph glyph-name="integral" unicode="&#x222b;" horiz-adv-x="381" 
d="M17 -100v93h61q26 0 44 21t18 53v534q0 50 22.5 88t60 58.5t80.5 20.5h61v-93h-61q-26 0 -44 -20t-18 -53v-536q0 -50 -22.5 -87.5t-60 -58t-80.5 -20.5h-61z" />
    <glyph glyph-name="approxequal" unicode="&#x2248;" horiz-adv-x="506" 
d="M29 472q50 -29 112 -29q29 0 48.5 5.5t53.5 17.5q33 14 58.5 20.5t62.5 6.5q29 0 59.5 -6t53.5 -16v-93q-53 29 -113 29q-30 0 -51.5 -6t-49.5 -17q-33 -13 -59 -20t-63 -7q-29 0 -58.5 6t-53.5 16v93zM29 291q50 -29 112 -29q29 0 48.5 5.5t53.5 17.5q33 14 58.5 20.5
t62.5 6.5q29 0 59.5 -6t53.5 -17v-93q-52 30 -113 30q-30 0 -51.5 -6t-49.5 -17q-33 -13 -59 -20t-63 -7q-29 0 -59 6t-53 16v93z" />
    <glyph glyph-name="notequal" unicode="&#x2260;" horiz-adv-x="506" 
d="M141 93h-82l66 105h-96v86h151l64 100h-215v87h270l66 103h83l-66 -103h95v-87h-150l-65 -100h215v-86h-270z" />
    <glyph glyph-name="lessequal" unicode="&#x2264;" horiz-adv-x="506" 
d="M477 113l-448 193v103l448 194v-103l-349 -143l349 -142v-102zM477 0h-448v86h448v-86z" />
    <glyph glyph-name="greaterequal" unicode="&#x2265;" horiz-adv-x="506" 
d="M476 306l-448 -193v102l350 142l-350 143v103l448 -194v-103zM477 0h-448v86h448v-86z" />
    <glyph glyph-name="uni22B2" unicode="&#x22b2;" horiz-adv-x="587" 
d="M589 286l-535 -309v618z" />
    <glyph glyph-name="uni22B3" unicode="&#x22b3;" horiz-adv-x="587" 
d="M535 595v-618l-535 309z" />
    <glyph glyph-name="dotmath" unicode="&#x22c5;" horiz-adv-x="208" 
d="M163 246q0 -24 -17 -41.5t-42 -17.5t-42 17.5t-17 41.5q0 22 18 39.5t41 17.5q22 0 41 -16q18 -18 18 -41z" />
    <glyph glyph-name="uni2318" unicode="&#x2318;" horiz-adv-x="667" 
d="M592.5 75q-32.5 -33 -78.5 -33t-79 33t-33 79v58h-137v-58q0 -46 -33 -79t-79 -33t-78.5 33t-32.5 79t32.5 78.5t78.5 32.5h58v137h-57q-46 0 -79 33t-33 79t33 78.5t79 32.5t78.5 -32.5t32.5 -78.5v-59h137v59q0 46 33 78.5t79 32.5t78.5 -32.5t32.5 -78.5t-32.5 -79
t-78.5 -33h-58v-137h58q46 0 78.5 -32.5t32.5 -78.5t-32.5 -79zM211 514q0 24 -17 41t-40 17q-25 0 -42 -17t-17 -41t17 -41.5t42 -17.5h57v59zM554.5 555q-17.5 17 -40.5 17q-24 0 -41 -17t-17 -41v-59h58q23 0 40.5 17.5t17.5 41.5t-17.5 41zM265 265h137v137h-137v-137z
M153 212q-24 0 -41 -17.5t-17 -40.5q0 -25 17 -42t41 -17t41 17t17 42v58h-58zM555 194.5q-17 17.5 -41 17.5h-58v-58q0 -25 17 -42t41 -17t41 17t17 42q0 23 -17 40.5z" />
    <glyph glyph-name="filledbox" unicode="&#x25a0;" horiz-adv-x="661" 
d="M47 572h571v-572h-571v572z" />
    <glyph glyph-name="triagup" unicode="&#x25b2;" horiz-adv-x="616" 
d="M-2 30l309 535l310 -536z" />
    <glyph glyph-name="triagdn" unicode="&#x25bc;" horiz-adv-x="616" 
d="M307 -25l-309 535h619z" />
    <glyph glyph-name="lozenge" unicode="&#x25ca;" horiz-adv-x="375" 
d="M198 667l158 -333l-158 -334h-21l-158 334l158 333h21zM187 626l-132 -292l133 -293l132 293z" />
    <glyph glyph-name="uni25CF" unicode="&#x25cf;" horiz-adv-x="695" 
d="M604 136q-40 -68 -108 -108t-149 -40t-149 40t-108 108t-40 149t40 149t108 108t149 40t149 -40t108 -108t40 -149t-40 -149z" />
    <glyph glyph-name="uni2605" unicode="&#x2605;" horiz-adv-x="759" 
d="M379 697l90 -276h290l-235 -171l90 -275l-235 170l-234 -170l89 275l-234 171h290z" />
    <glyph glyph-name="uni2610" unicode="&#x2610;" horiz-adv-x="661" 
d="M45 572h571v-572h-571v572zM140 486v-400h382v400h-382z" />
    <glyph glyph-name="diamond" unicode="&#x2666;" horiz-adv-x="501" 
d="M501 285l-251 -250l-250 250l250 251z" />
    <glyph glyph-name="uni2713" unicode="&#x2713;" horiz-adv-x="531" 
d="M531 698l-329 -607l-202 246l67 63l122 -147l268 490z" />
    <glyph glyph-name="guillemotleft.case" unicode="&#xf6b6;" horiz-adv-x="552" 
d="M320 519l-160 -177l160 -180h-130l-160 180l160 177h130zM522 519l-160 -177l160 -180h-129l-160 180l160 177h129z" />
    <glyph glyph-name="guillemotright.case" unicode="&#xf6b7;" horiz-adv-x="552" 
d="M30 519h130l160 -177l-160 -180h-130l160 180zM233 519h129l160 -177l-160 -180h-129l160 180z" />
    <glyph glyph-name="guilsinglleft.case" unicode="&#xf6b8;" horiz-adv-x="350" 
d="M320 519l-160 -177l160 -180h-130l-160 180l160 177h130z" />
    <glyph glyph-name="guilsinglright.case" unicode="&#xf6b9;" horiz-adv-x="350" 
d="M30 519h130l160 -177l-160 -180h-130l160 180z" />
    <glyph glyph-name="hyphen.case" unicode="&#xf6ba;" horiz-adv-x="300" 
d="M270 281h-240v120h240v-120z" />
    <glyph glyph-name="endash.case" unicode="&#xf6bb;" horiz-adv-x="593" 
d="M563 281h-533v120h533v-120z" />
    <glyph glyph-name="emdash.case" unicode="&#xf6bc;" horiz-adv-x="833" 
d="M803 281h-773v120h773v-120z" />
    <glyph glyph-name="uniF6C3" unicode="&#xf6c3;" horiz-adv-x="0" 
d="M-81 -224.5q-23 -40.5 -63 -68.5l-47 38q21 11 40.5 34t24.5 44q-6 -3 -17 -3q-24 0 -40 16.5t-16 43.5q0 28 19.5 47.5t46.5 19.5q31 0 53 -23t22 -63q0 -45 -23 -85.5z" />
    <glyph glyph-name="uniF8FF" unicode="&#xf8ff;" horiz-adv-x="1624" 
d="M65 667h473l287 -398l-287 -269zM658 667h567l333 -472l-333 -326z" />
    <glyph glyph-name="s.alt" horiz-adv-x="477" 
d="M205 326q22 -11 70 -23q53 -13 88.5 -27.5t61 -45.5t25.5 -82t-28.5 -87.5t-76 -55t-102.5 -18.5q-75 0 -129 30t-80 87l107 60q23 -64 102 -64q31 0 52 13t21 37q0 21 -22.5 32t-71.5 23q-53 14 -87 28t-59 43t-25 77q0 49 26.5 85.5t70.5 55.5t97 19q62 0 111 -27
t77 -78l-107 -57q-12 25 -31 37t-50 12q-28 0 -45 -11.5t-17 -30.5q0 -21 22 -32z" />
    <glyph glyph-name="colon.alt" horiz-adv-x="263" 
d="M75.5 545q20.5 20 57.5 20t57 -20t20 -58t-20 -58.5t-57 -20.5q-38 0 -58 20.5t-20 58.5t20.5 58zM75 201.5q20 20.5 58 20.5q37 0 57 -20.5t20 -58.5t-20 -58.5t-57 -20.5q-38 0 -58 20.5t-20 58.5t20 58.5z" />
    <glyph glyph-name="lowercaseshoulder" 
d="M358 295q0 48 -27 69.5t-64 21.5q-36 0 -61 -26.5t-25 -82.5l-63 -1q-2 -16 -2 70q0 30 25 69.5t68 67t93 27.5q44 0 89 -19t77 -67t32 -129h-142z" />
    <glyph glyph-name="lowercasestem" 
d="M223 0v500h142v-500h-142z" />
    <glyph glyph-name="lowercaseshortstem" 
d="M358 0v299h142v-299h-142z" />
    <glyph glyph-name="lowercasealoop" 
d="M480 118.5q-36 -60.5 -95.5 -96.5t-127.5 -36q-78 0 -134.5 34t-86.5 93.5t-30 135.5t30 136.5t86.5 94.5t134.5 34q67 0 127 -36t96 -97.5t36 -131.5t-36 -130.5zM370 158q38 36 38 93q0 55 -38 90t-94 35t-91.5 -35t-35.5 -92t35.5 -92t91.5 -35t94 36z" />
    <glyph glyph-name="newGlyph" 
 />
    <glyph glyph-name="lowercaseftop" 
d="M274 571l-19 1q-44 0 -69 -16.5t-25 -48.5v-115h-143v80q0 69 31.5 126t90 88.5t134.5 26.5v-142z" />
    <glyph glyph-name="lowercasegdescender" 
d="M426 500h143v-475q0 -70 -36.5 -124t-100.5 -84t-144 -30q-87 0 -159.5 33.5t-101.5 86.5l122 71q13 -26 52 -43t91 -17q58 0 96 30t38 77v475z" />
    <glyph glyph-name="lowercasethook" 
d="M268 0q-50 -5 -83 -5q-84 0 -125 37.5t-41 136.5v140h142v-131q0 -28 15.5 -39t47.5 -11q20 0 44 3v-131z" />
    <glyph glyph-name="lowercaser" 
d="M307 375q-7 3 -23 3q-61 0 -99.5 -34.5t-38.5 -90.5l-26 23q6 4 10.5 27.5t4.5 68.5q0 31 20 63t57.5 53.5t88.5 21.5h16z" />
    <glyph glyph-name="lowercasetcross" horiz-adv-x="1200" 
d="M144 373v127h334v-127h-334z" />
    <glyph glyph-name="ascenderstem" 
d="M56 0v700h151v-700h-151z" />
    <glyph glyph-name="uppercasehoriz" horiz-adv-x="792" 
d="M197 558v142h214v-142h-214z" />
    <glyph glyph-name="idot" horiz-adv-x="345" 
d="M105.5 572.5q-22.5 21.5 -22.5 59.5t22.5 59.5t62.5 21.5q39 0 62 -22t23 -59t-23 -59t-62 -22q-40 0 -62.5 21.5z" />
    </font>
</defs>
</svg>
