<svg width="45" height="27" viewBox="0 0 45 27" fill="none" xmlns="http://www.w3.org/2000/svg">
<path d="M3.08142 22.0828V22.1063L4.49026 20.6975H1.42836L2.8372 22.1063C2.8372 21.167 2.89825 20.2326 3.02035 19.3027C3.00156 19.4295 2.98747 19.5516 2.96869 19.6784C3.21758 17.8657 3.6966 16.0999 4.40569 14.414L4.26481 14.7521C4.66868 13.8034 5.13831 12.8877 5.67364 12.0095C5.94133 11.5727 6.22309 11.1454 6.52365 10.7321C6.59409 10.6335 6.66453 10.5349 6.73967 10.4362C6.78194 10.3799 6.8289 10.3188 6.87116 10.2625C7.03083 10.0512 6.69271 10.4926 6.80541 10.347C6.96509 10.1451 7.12476 9.94785 7.28912 9.75531C7.94658 8.97574 8.66043 8.2478 9.4259 7.57155C9.61845 7.40249 9.81099 7.23813 10.0082 7.07845C10.1022 7.00331 10.1961 6.92348 10.29 6.84834C10.3698 6.78729 10.5342 6.66519 10.2055 6.91408C10.2759 6.86243 10.3416 6.81077 10.4074 6.75911C10.816 6.45386 11.2386 6.16269 11.666 5.88561C12.6475 5.25632 13.6759 4.71627 14.7467 4.26071C14.634 4.30768 14.5212 4.35464 14.4085 4.4016C16.0945 3.69248 17.8602 3.20873 19.673 2.9646C19.5462 2.98338 19.4241 2.99747 19.2973 3.01625C21.1429 2.77205 23.012 2.77205 24.8576 3.01625C24.7308 2.99747 24.6087 2.98338 24.4819 2.9646C26.2899 3.21349 28.0604 3.69251 29.7463 4.4016C29.6336 4.35464 29.5209 4.30767 29.4082 4.26071C30.3569 4.66458 31.2726 5.13422 32.1508 5.66955C32.5876 5.93723 33.0103 6.219 33.4282 6.51956C33.5268 6.59 33.6254 6.66044 33.7241 6.73558C33.7804 6.77785 33.8415 6.82481 33.8978 6.86707C34.1091 7.02674 33.6677 6.68862 33.8133 6.80132C34.0152 6.961 34.2124 7.12067 34.405 7.28503C35.1846 7.94249 35.9125 8.65634 36.5887 9.42181C36.7578 9.61436 36.9222 9.8069 37.0819 10.0041C37.157 10.0981 37.2368 10.192 37.312 10.2859C37.373 10.3657 37.4951 10.5301 37.2462 10.2014C37.2979 10.2718 37.3495 10.3376 37.4012 10.4033C37.7064 10.8119 37.9976 11.2345 38.2747 11.6619C38.904 12.6434 39.444 13.6718 39.8996 14.7426L39.7587 14.4044C40.4678 16.0904 40.9516 17.8561 41.1957 19.6689C41.1769 19.5421 41.1628 19.42 41.144 19.2932C41.2661 20.223 41.3272 21.1576 41.3272 22.0968L42.736 20.688H39.6272L41.036 22.0968V22.0733C41.036 21.336 40.3879 20.6316 39.6272 20.6645C38.8617 20.6973 38.2183 21.2844 38.2183 22.0733V22.0968C38.2183 22.8576 38.8617 23.5056 39.6272 23.5056H42.736C43.4968 23.5056 44.1449 22.8622 44.1449 22.0968C44.1449 17.5978 42.7642 13.0938 40.1531 9.41675C37.5233 5.7115 33.8603 2.89374 29.5959 1.32055C25.2942 -0.266734 20.4427 -0.417012 16.0331 0.83684C11.7877 2.04379 7.89926 4.5609 5.09542 7.97505C3.61144 9.78311 2.44211 11.7602 1.55916 13.9298C0.695106 16.0525 0.211382 18.3113 0.0516581 20.5938C0.0140886 21.0963 0 21.594 0 22.0965C0 22.8573 0.643379 23.5054 1.40884 23.5054H4.47073C5.23151 23.5054 5.87956 22.862 5.87956 22.0965V22.0731C5.87956 21.3358 5.23149 20.6313 4.47073 20.6642C3.72404 20.7065 3.08061 21.2935 3.08061 22.0825L3.08142 22.0828Z" fill="#4E4E4E"/>
<path d="M25.1639 19.0111C24.5581 18.4241 23.7738 17.9639 22.9331 17.8277C21.9563 17.6634 21.0406 17.7855 20.1389 18.2081C18.6221 18.9219 17.603 20.7018 17.7674 22.3689C17.866 23.3551 18.2135 24.2052 18.8522 24.9613C19.3876 25.6 20.1906 26.0743 20.9983 26.2809C21.8202 26.4875 22.7453 26.4734 23.5437 26.1682C24.4406 25.8207 25.1545 25.2665 25.7087 24.4822C26.8874 22.8057 26.5587 20.4435 25.1639 19.0112C24.6473 18.4805 23.6799 18.457 23.1727 19.0112C22.6514 19.5794 22.6232 20.4388 23.1727 21.0024C23.2384 21.0681 23.2948 21.1574 23.3699 21.2184C23.2243 21.0259 23.1961 20.9883 23.2807 21.1057C23.2995 21.1339 23.3229 21.1668 23.3417 21.1949C23.4403 21.3499 23.5249 21.5143 23.5953 21.6833L23.4544 21.3452C23.5484 21.58 23.6094 21.8195 23.647 22.0684C23.6282 21.9416 23.6141 21.8195 23.5953 21.6927C23.6282 21.9557 23.6235 22.2187 23.5906 22.4817C23.6094 22.3549 23.6235 22.2328 23.6423 22.106C23.6047 22.3502 23.5437 22.5897 23.4497 22.8198C23.4967 22.7071 23.5437 22.5944 23.5906 22.4817C23.5155 22.6601 23.4263 22.8339 23.3182 22.9936C23.229 23.1251 23.1257 23.1486 23.3652 22.9419C23.2948 23.003 23.2384 23.0875 23.1727 23.1532C23.1163 23.2096 23.0318 23.3129 22.9566 23.3458C23.013 23.3035 23.0693 23.2566 23.1257 23.2143C23.0881 23.2425 23.0459 23.2707 23.0083 23.2988C22.8439 23.4068 22.6749 23.4961 22.4917 23.5712C22.6044 23.5242 22.7171 23.4773 22.8298 23.4303C22.595 23.5243 22.3602 23.5853 22.1113 23.6229C22.2381 23.6041 22.3602 23.59 22.487 23.5712C22.2287 23.6041 21.9704 23.6041 21.7122 23.5712C21.839 23.59 21.961 23.6041 22.0878 23.6229C21.839 23.5853 21.5994 23.5243 21.3646 23.4303C21.4773 23.4773 21.59 23.5243 21.7028 23.5712C21.5243 23.4961 21.3505 23.4068 21.1862 23.2988C21.0547 23.2096 21.0359 23.111 21.2378 23.3458C21.1768 23.2753 21.0876 23.219 21.0218 23.1485C20.9655 23.0922 20.8574 23.0077 20.8293 22.9372C20.8715 22.9936 20.9185 23.0499 20.9608 23.111C20.9326 23.0734 20.9044 23.0311 20.8762 22.9936C20.7682 22.8339 20.679 22.6601 20.6038 22.4817C20.6508 22.5944 20.6978 22.7071 20.7447 22.8198C20.6508 22.5897 20.5898 22.3502 20.5522 22.106C20.571 22.2328 20.5851 22.3549 20.6038 22.4817C20.571 22.2187 20.571 21.9557 20.5991 21.6927C20.5804 21.8195 20.5663 21.9416 20.5475 22.0684C20.5851 21.8195 20.6461 21.58 20.74 21.3452L20.5991 21.6833C20.6743 21.5049 20.7635 21.3311 20.8715 21.1668C20.9608 21.0353 21.0594 21.0165 20.8246 21.2184C20.895 21.1574 20.9514 21.0681 21.0218 21.0024C21.0782 20.946 21.1627 20.8427 21.2378 20.8052C21.1815 20.8474 21.1251 20.8944 21.0688 20.9366C21.1063 20.9085 21.1486 20.8803 21.1862 20.8521C21.3505 20.7441 21.5243 20.6549 21.7027 20.5797L21.3646 20.7206C21.5994 20.6267 21.8389 20.5656 22.0878 20.5281C21.961 20.5469 21.8389 20.5609 21.7121 20.5797C21.9704 20.5469 22.2287 20.5515 22.487 20.5797C22.3602 20.5609 22.2381 20.5469 22.1113 20.5281C22.3602 20.5656 22.5997 20.6267 22.8298 20.7206L22.4917 20.5797C22.6608 20.6502 22.8251 20.7347 22.9754 20.8333C23.0083 20.8521 23.0365 20.8709 23.0646 20.8944C23.1821 20.9789 23.1445 20.9507 22.9519 20.8051C23.013 20.8756 23.0975 20.9366 23.168 20.9977C23.6939 21.5143 24.6426 21.5612 25.1592 20.9977C25.6711 20.4482 25.7274 19.5607 25.1639 19.0112L25.1639 19.0111Z" fill="#4E4E4E"/>
<path d="M23.5052 4.99321V1.4147C23.5052 0.677405 22.8571 -0.0270204 22.0963 0.00586901C21.3309 0.0387421 20.6875 0.625769 20.6875 1.4147V4.99321C20.6875 5.73051 21.3356 6.43493 22.0963 6.40205C22.8618 6.36917 23.5052 5.78684 23.5052 4.99321Z" fill="#4E4E4E"/>
<path d="M10.5956 8.59053C9.89122 7.8861 9.18209 7.17697 8.47767 6.47255C7.9564 5.95127 6.99834 5.91371 6.48645 6.47255C5.96987 7.03609 5.9276 7.90955 6.48645 8.46378C7.19087 9.1682 7.90001 9.87734 8.60442 10.5818C9.1257 11.103 10.0838 11.1406 10.5956 10.5818C11.1122 10.0229 11.1498 9.14939 10.5956 8.59053Z" fill="#4E4E4E"/>
<path d="M35.7067 6.47281C35.0023 7.17724 34.2979 7.88637 33.5888 8.59079C33.0675 9.11207 33.0299 10.0701 33.5888 10.582C34.1523 11.0986 35.0258 11.1409 35.58 10.582C36.2844 9.87759 36.9888 9.16846 37.698 8.46404C38.2192 7.94276 38.2568 6.9847 37.698 6.47281C37.1391 5.95623 36.2656 5.91866 35.7067 6.47281V6.47281Z" fill="#4E4E4E"/>
<path d="M23.5052 19.1477V16.1515V11.399V10.2953C23.5052 9.55802 22.8571 8.85359 22.0963 8.88648C21.3309 8.91936 20.6875 9.50639 20.6875 10.2953V13.2915V18.0441V19.1477C20.6875 19.885 21.3356 20.5895 22.0963 20.5566C22.8618 20.5237 23.5052 19.9414 23.5052 19.1477V19.1477Z" fill="#4E4E4E"/>
</svg>
