<svg width="33" height="31" viewBox="0 0 33 31" fill="none" xmlns="http://www.w3.org/2000/svg">
<path d="M5.2439 1.00037C2.91965 1.00037 1 2.85581 1 5.16669C1 7.11951 2.38078 8.74686 4.23337 9.20252V21.6351C2.38078 22.0908 1 23.7181 1 25.6709C1 27.9818 2.91973 29.8373 5.2439 29.8373C7.56806 29.8373 9.48871 27.9818 9.48871 25.6709C9.48871 23.7181 8.10709 22.0908 6.25442 21.6351V16.395H15.2818V21.6351C13.4292 22.0908 12.0481 23.7181 12.0481 25.6709C12.0481 27.9818 13.9681 29.8373 16.2923 29.8373C18.6502 29.8373 20.5365 27.9818 20.5365 25.6709C20.5365 23.7181 19.1554 22.0908 17.3028 21.6351V16.395H27.3411C27.9137 16.395 28.3516 15.9719 28.3516 15.4186V9.20215C30.2042 8.74649 31.585 7.11914 31.585 5.16632C31.585 2.85552 29.6653 1 27.3411 1C24.9832 1 23.0963 2.85544 23.0963 5.16632C23.0963 7.11914 24.4779 8.74649 26.3306 9.20215V14.4423H17.3032V9.20215C19.1558 8.74649 20.5369 7.11914 20.5369 5.16632C20.5369 2.85552 18.6169 1 16.2927 1C13.9348 1 12.0485 2.85544 12.0485 5.16632C12.0485 7.11914 13.4296 8.74649 15.2822 9.20215V14.4423H6.25481V9.20215C8.1074 8.74649 9.4891 7.11914 9.4891 5.16632C9.4891 2.85552 7.56853 1 5.24428 1L5.2439 1.00037ZM5.2439 2.95319C6.45652 2.95319 7.46767 3.9299 7.46767 5.16669C7.46767 6.37097 6.45652 7.38019 5.2439 7.38019C4.03127 7.38019 3.02105 6.37097 3.02105 5.16669C3.02105 3.96241 4.03127 2.95319 5.2439 2.95319V2.95319ZM16.2923 2.95319C17.5386 2.95319 18.5155 3.9299 18.5155 5.16669C18.5155 6.37097 17.5049 7.38019 16.2923 7.38019C15.0459 7.38019 14.0691 6.37097 14.0691 5.16669C14.0691 3.96241 15.0797 2.95319 16.2923 2.95319V2.95319ZM27.3068 2.95319C28.5532 2.95319 29.5306 3.9299 29.5306 5.16669C29.5306 6.37097 28.5195 7.38019 27.3068 7.38019C26.0942 7.38019 25.084 6.37097 25.084 5.16669C25.084 3.96241 26.0942 2.95319 27.3068 2.95319V2.95319ZM5.27777 23.4575C6.4904 23.4575 7.50062 24.4667 7.50062 25.6709C7.50062 26.8752 6.4904 27.8844 5.27777 27.8844C4.06514 27.8844 3.054 26.9077 3.054 25.6709C3.054 24.4667 4.06514 23.4575 5.27777 23.4575ZM16.2923 23.4575C17.5386 23.4575 18.5155 24.4667 18.5155 25.6709C18.5155 26.8752 17.5049 27.8844 16.2923 27.8844C15.0459 27.8844 14.0691 26.9077 14.0691 25.6709C14.0691 24.4667 15.0797 23.4575 16.2923 23.4575Z" fill="#4E4E4E" stroke="#4E4E4E"/>
</svg>
